G04 #@! TF.GenerationSoftware,KiCad,Pcbnew,8.0.5*
G04 #@! TF.CreationDate,2024-10-03T23:55:07-04:00*
G04 #@! TF.ProjectId,Lily58_Pro,4c696c79-3538-45f5-9072-6f2e6b696361,rev?*
G04 #@! TF.SameCoordinates,Original*
G04 #@! TF.FileFunction,AssemblyDrawing,Top*
%FSLAX46Y46*%
G04 Gerber Fmt 4.6, Leading zero omitted, Abs format (unit mm)*
G04 Created by KiCad (PCBNEW 8.0.5) date 2024-10-03 23:55:07*
%MOMM*%
%LPD*%
G01*
G04 APERTURE LIST*
%ADD10C,0.150000*%
G04 APERTURE END LIST*
D10*
X84333333Y-82854819D02*
X84333333Y-81854819D01*
X84333333Y-82331009D02*
X84904761Y-82331009D01*
X84904761Y-82854819D02*
X84904761Y-81854819D01*
X85571428Y-81854819D02*
X85761904Y-81854819D01*
X85761904Y-81854819D02*
X85857142Y-81902438D01*
X85857142Y-81902438D02*
X85952380Y-81997676D01*
X85952380Y-81997676D02*
X85999999Y-82188152D01*
X85999999Y-82188152D02*
X85999999Y-82521485D01*
X85999999Y-82521485D02*
X85952380Y-82711961D01*
X85952380Y-82711961D02*
X85857142Y-82807200D01*
X85857142Y-82807200D02*
X85761904Y-82854819D01*
X85761904Y-82854819D02*
X85571428Y-82854819D01*
X85571428Y-82854819D02*
X85476190Y-82807200D01*
X85476190Y-82807200D02*
X85380952Y-82711961D01*
X85380952Y-82711961D02*
X85333333Y-82521485D01*
X85333333Y-82521485D02*
X85333333Y-82188152D01*
X85333333Y-82188152D02*
X85380952Y-81997676D01*
X85380952Y-81997676D02*
X85476190Y-81902438D01*
X85476190Y-81902438D02*
X85571428Y-81854819D01*
X86904761Y-82854819D02*
X86428571Y-82854819D01*
X86428571Y-82854819D02*
X86428571Y-81854819D01*
X87238095Y-82331009D02*
X87571428Y-82331009D01*
X87714285Y-82854819D02*
X87238095Y-82854819D01*
X87238095Y-82854819D02*
X87238095Y-81854819D01*
X87238095Y-81854819D02*
X87714285Y-81854819D01*
X106333333Y-82854819D02*
X106333333Y-81854819D01*
X106333333Y-82331009D02*
X106904761Y-82331009D01*
X106904761Y-82854819D02*
X106904761Y-81854819D01*
X107571428Y-81854819D02*
X107761904Y-81854819D01*
X107761904Y-81854819D02*
X107857142Y-81902438D01*
X107857142Y-81902438D02*
X107952380Y-81997676D01*
X107952380Y-81997676D02*
X107999999Y-82188152D01*
X107999999Y-82188152D02*
X107999999Y-82521485D01*
X107999999Y-82521485D02*
X107952380Y-82711961D01*
X107952380Y-82711961D02*
X107857142Y-82807200D01*
X107857142Y-82807200D02*
X107761904Y-82854819D01*
X107761904Y-82854819D02*
X107571428Y-82854819D01*
X107571428Y-82854819D02*
X107476190Y-82807200D01*
X107476190Y-82807200D02*
X107380952Y-82711961D01*
X107380952Y-82711961D02*
X107333333Y-82521485D01*
X107333333Y-82521485D02*
X107333333Y-82188152D01*
X107333333Y-82188152D02*
X107380952Y-81997676D01*
X107380952Y-81997676D02*
X107476190Y-81902438D01*
X107476190Y-81902438D02*
X107571428Y-81854819D01*
X108904761Y-82854819D02*
X108428571Y-82854819D01*
X108428571Y-82854819D02*
X108428571Y-81854819D01*
X109238095Y-82331009D02*
X109571428Y-82331009D01*
X109714285Y-82854819D02*
X109238095Y-82854819D01*
X109238095Y-82854819D02*
X109238095Y-81854819D01*
X109238095Y-81854819D02*
X109714285Y-81854819D01*
X96644657Y-76243216D02*
X96644657Y-75430416D01*
X96644657Y-75430416D02*
X96838181Y-75430416D01*
X96838181Y-75430416D02*
X96954295Y-75469121D01*
X96954295Y-75469121D02*
X97031705Y-75546531D01*
X97031705Y-75546531D02*
X97070410Y-75623940D01*
X97070410Y-75623940D02*
X97109114Y-75778759D01*
X97109114Y-75778759D02*
X97109114Y-75894873D01*
X97109114Y-75894873D02*
X97070410Y-76049692D01*
X97070410Y-76049692D02*
X97031705Y-76127102D01*
X97031705Y-76127102D02*
X96954295Y-76204512D01*
X96954295Y-76204512D02*
X96838181Y-76243216D01*
X96838181Y-76243216D02*
X96644657Y-76243216D01*
X97457457Y-76243216D02*
X97457457Y-75701350D01*
X97457457Y-75430416D02*
X97418753Y-75469121D01*
X97418753Y-75469121D02*
X97457457Y-75507826D01*
X97457457Y-75507826D02*
X97496162Y-75469121D01*
X97496162Y-75469121D02*
X97457457Y-75430416D01*
X97457457Y-75430416D02*
X97457457Y-75507826D01*
X97805801Y-76204512D02*
X97883210Y-76243216D01*
X97883210Y-76243216D02*
X98038029Y-76243216D01*
X98038029Y-76243216D02*
X98115439Y-76204512D01*
X98115439Y-76204512D02*
X98154143Y-76127102D01*
X98154143Y-76127102D02*
X98154143Y-76088397D01*
X98154143Y-76088397D02*
X98115439Y-76010988D01*
X98115439Y-76010988D02*
X98038029Y-75972283D01*
X98038029Y-75972283D02*
X97921915Y-75972283D01*
X97921915Y-75972283D02*
X97844505Y-75933578D01*
X97844505Y-75933578D02*
X97805801Y-75856169D01*
X97805801Y-75856169D02*
X97805801Y-75817464D01*
X97805801Y-75817464D02*
X97844505Y-75740054D01*
X97844505Y-75740054D02*
X97921915Y-75701350D01*
X97921915Y-75701350D02*
X98038029Y-75701350D01*
X98038029Y-75701350D02*
X98115439Y-75740054D01*
X98502486Y-75701350D02*
X98502486Y-76514150D01*
X98502486Y-75740054D02*
X98579896Y-75701350D01*
X98579896Y-75701350D02*
X98734715Y-75701350D01*
X98734715Y-75701350D02*
X98812124Y-75740054D01*
X98812124Y-75740054D02*
X98850829Y-75778759D01*
X98850829Y-75778759D02*
X98889534Y-75856169D01*
X98889534Y-75856169D02*
X98889534Y-76088397D01*
X98889534Y-76088397D02*
X98850829Y-76165807D01*
X98850829Y-76165807D02*
X98812124Y-76204512D01*
X98812124Y-76204512D02*
X98734715Y-76243216D01*
X98734715Y-76243216D02*
X98579896Y-76243216D01*
X98579896Y-76243216D02*
X98502486Y-76204512D01*
X99353991Y-76243216D02*
X99276581Y-76204512D01*
X99276581Y-76204512D02*
X99237876Y-76127102D01*
X99237876Y-76127102D02*
X99237876Y-75430416D01*
X100011971Y-76243216D02*
X100011971Y-75817464D01*
X100011971Y-75817464D02*
X99973266Y-75740054D01*
X99973266Y-75740054D02*
X99895857Y-75701350D01*
X99895857Y-75701350D02*
X99741038Y-75701350D01*
X99741038Y-75701350D02*
X99663628Y-75740054D01*
X100011971Y-76204512D02*
X99934562Y-76243216D01*
X99934562Y-76243216D02*
X99741038Y-76243216D01*
X99741038Y-76243216D02*
X99663628Y-76204512D01*
X99663628Y-76204512D02*
X99624924Y-76127102D01*
X99624924Y-76127102D02*
X99624924Y-76049692D01*
X99624924Y-76049692D02*
X99663628Y-75972283D01*
X99663628Y-75972283D02*
X99741038Y-75933578D01*
X99741038Y-75933578D02*
X99934562Y-75933578D01*
X99934562Y-75933578D02*
X100011971Y-75894873D01*
X100321609Y-75701350D02*
X100515133Y-76243216D01*
X100708656Y-75701350D02*
X100515133Y-76243216D01*
X100515133Y-76243216D02*
X100437723Y-76436740D01*
X100437723Y-76436740D02*
X100399018Y-76475445D01*
X100399018Y-76475445D02*
X100321609Y-76514150D01*
X101444047Y-76243216D02*
X100979590Y-76243216D01*
X101211818Y-76243216D02*
X101211818Y-75430416D01*
X101211818Y-75430416D02*
X101134409Y-75546531D01*
X101134409Y-75546531D02*
X101056999Y-75623940D01*
X101056999Y-75623940D02*
X100979590Y-75662645D01*
X85186819Y-46582142D02*
X84186819Y-46582142D01*
X84186819Y-46582142D02*
X84186819Y-46201190D01*
X84186819Y-46201190D02*
X84234438Y-46105952D01*
X84234438Y-46105952D02*
X84282057Y-46058333D01*
X84282057Y-46058333D02*
X84377295Y-46010714D01*
X84377295Y-46010714D02*
X84520152Y-46010714D01*
X84520152Y-46010714D02*
X84615390Y-46058333D01*
X84615390Y-46058333D02*
X84663009Y-46105952D01*
X84663009Y-46105952D02*
X84710628Y-46201190D01*
X84710628Y-46201190D02*
X84710628Y-46582142D01*
X84186819Y-45677380D02*
X85186819Y-45439285D01*
X85186819Y-45439285D02*
X84472533Y-45248809D01*
X84472533Y-45248809D02*
X85186819Y-45058333D01*
X85186819Y-45058333D02*
X84186819Y-44820238D01*
X85139200Y-44486904D02*
X85186819Y-44344047D01*
X85186819Y-44344047D02*
X85186819Y-44105952D01*
X85186819Y-44105952D02*
X85139200Y-44010714D01*
X85139200Y-44010714D02*
X85091580Y-43963095D01*
X85091580Y-43963095D02*
X84996342Y-43915476D01*
X84996342Y-43915476D02*
X84901104Y-43915476D01*
X84901104Y-43915476D02*
X84805866Y-43963095D01*
X84805866Y-43963095D02*
X84758247Y-44010714D01*
X84758247Y-44010714D02*
X84710628Y-44105952D01*
X84710628Y-44105952D02*
X84663009Y-44296428D01*
X84663009Y-44296428D02*
X84615390Y-44391666D01*
X84615390Y-44391666D02*
X84567771Y-44439285D01*
X84567771Y-44439285D02*
X84472533Y-44486904D01*
X84472533Y-44486904D02*
X84377295Y-44486904D01*
X84377295Y-44486904D02*
X84282057Y-44439285D01*
X84282057Y-44439285D02*
X84234438Y-44391666D01*
X84234438Y-44391666D02*
X84186819Y-44296428D01*
X84186819Y-44296428D02*
X84186819Y-44058333D01*
X84186819Y-44058333D02*
X84234438Y-43915476D01*
X84186819Y-43582142D02*
X85186819Y-43344047D01*
X85186819Y-43344047D02*
X84472533Y-43153571D01*
X84472533Y-43153571D02*
X85186819Y-42963095D01*
X85186819Y-42963095D02*
X84186819Y-42725000D01*
X84282057Y-42391666D02*
X84234438Y-42344047D01*
X84234438Y-42344047D02*
X84186819Y-42248809D01*
X84186819Y-42248809D02*
X84186819Y-42010714D01*
X84186819Y-42010714D02*
X84234438Y-41915476D01*
X84234438Y-41915476D02*
X84282057Y-41867857D01*
X84282057Y-41867857D02*
X84377295Y-41820238D01*
X84377295Y-41820238D02*
X84472533Y-41820238D01*
X84472533Y-41820238D02*
X84615390Y-41867857D01*
X84615390Y-41867857D02*
X85186819Y-42439285D01*
X85186819Y-42439285D02*
X85186819Y-41820238D01*
X89139200Y-49129761D02*
X89186819Y-48986904D01*
X89186819Y-48986904D02*
X89186819Y-48748809D01*
X89186819Y-48748809D02*
X89139200Y-48653571D01*
X89139200Y-48653571D02*
X89091580Y-48605952D01*
X89091580Y-48605952D02*
X88996342Y-48558333D01*
X88996342Y-48558333D02*
X88901104Y-48558333D01*
X88901104Y-48558333D02*
X88805866Y-48605952D01*
X88805866Y-48605952D02*
X88758247Y-48653571D01*
X88758247Y-48653571D02*
X88710628Y-48748809D01*
X88710628Y-48748809D02*
X88663009Y-48939285D01*
X88663009Y-48939285D02*
X88615390Y-49034523D01*
X88615390Y-49034523D02*
X88567771Y-49082142D01*
X88567771Y-49082142D02*
X88472533Y-49129761D01*
X88472533Y-49129761D02*
X88377295Y-49129761D01*
X88377295Y-49129761D02*
X88282057Y-49082142D01*
X88282057Y-49082142D02*
X88234438Y-49034523D01*
X88234438Y-49034523D02*
X88186819Y-48939285D01*
X88186819Y-48939285D02*
X88186819Y-48701190D01*
X88186819Y-48701190D02*
X88234438Y-48558333D01*
X88186819Y-48224999D02*
X89186819Y-47986904D01*
X89186819Y-47986904D02*
X88472533Y-47796428D01*
X88472533Y-47796428D02*
X89186819Y-47605952D01*
X89186819Y-47605952D02*
X88186819Y-47367857D01*
X89282057Y-47225000D02*
X89282057Y-46463095D01*
X89139200Y-46272618D02*
X89186819Y-46129761D01*
X89186819Y-46129761D02*
X89186819Y-45891666D01*
X89186819Y-45891666D02*
X89139200Y-45796428D01*
X89139200Y-45796428D02*
X89091580Y-45748809D01*
X89091580Y-45748809D02*
X88996342Y-45701190D01*
X88996342Y-45701190D02*
X88901104Y-45701190D01*
X88901104Y-45701190D02*
X88805866Y-45748809D01*
X88805866Y-45748809D02*
X88758247Y-45796428D01*
X88758247Y-45796428D02*
X88710628Y-45891666D01*
X88710628Y-45891666D02*
X88663009Y-46082142D01*
X88663009Y-46082142D02*
X88615390Y-46177380D01*
X88615390Y-46177380D02*
X88567771Y-46224999D01*
X88567771Y-46224999D02*
X88472533Y-46272618D01*
X88472533Y-46272618D02*
X88377295Y-46272618D01*
X88377295Y-46272618D02*
X88282057Y-46224999D01*
X88282057Y-46224999D02*
X88234438Y-46177380D01*
X88234438Y-46177380D02*
X88186819Y-46082142D01*
X88186819Y-46082142D02*
X88186819Y-45844047D01*
X88186819Y-45844047D02*
X88234438Y-45701190D01*
X89186819Y-45272618D02*
X88186819Y-45272618D01*
X88186819Y-45272618D02*
X88186819Y-44891666D01*
X88186819Y-44891666D02*
X88234438Y-44796428D01*
X88234438Y-44796428D02*
X88282057Y-44748809D01*
X88282057Y-44748809D02*
X88377295Y-44701190D01*
X88377295Y-44701190D02*
X88520152Y-44701190D01*
X88520152Y-44701190D02*
X88615390Y-44748809D01*
X88615390Y-44748809D02*
X88663009Y-44796428D01*
X88663009Y-44796428D02*
X88710628Y-44891666D01*
X88710628Y-44891666D02*
X88710628Y-45272618D01*
X89186819Y-44272618D02*
X88186819Y-44272618D01*
X88186819Y-44272618D02*
X88186819Y-44034523D01*
X88186819Y-44034523D02*
X88234438Y-43891666D01*
X88234438Y-43891666D02*
X88329676Y-43796428D01*
X88329676Y-43796428D02*
X88424914Y-43748809D01*
X88424914Y-43748809D02*
X88615390Y-43701190D01*
X88615390Y-43701190D02*
X88758247Y-43701190D01*
X88758247Y-43701190D02*
X88948723Y-43748809D01*
X88948723Y-43748809D02*
X89043961Y-43796428D01*
X89043961Y-43796428D02*
X89139200Y-43891666D01*
X89139200Y-43891666D02*
X89186819Y-44034523D01*
X89186819Y-44034523D02*
X89186819Y-44272618D01*
X88186819Y-43415475D02*
X88186819Y-42844047D01*
X89186819Y-43129761D02*
X88186819Y-43129761D01*
X89282057Y-42748809D02*
X89282057Y-41986904D01*
X88186819Y-41844046D02*
X88186819Y-41224999D01*
X88186819Y-41224999D02*
X88567771Y-41558332D01*
X88567771Y-41558332D02*
X88567771Y-41415475D01*
X88567771Y-41415475D02*
X88615390Y-41320237D01*
X88615390Y-41320237D02*
X88663009Y-41272618D01*
X88663009Y-41272618D02*
X88758247Y-41224999D01*
X88758247Y-41224999D02*
X88996342Y-41224999D01*
X88996342Y-41224999D02*
X89091580Y-41272618D01*
X89091580Y-41272618D02*
X89139200Y-41320237D01*
X89139200Y-41320237D02*
X89186819Y-41415475D01*
X89186819Y-41415475D02*
X89186819Y-41701189D01*
X89186819Y-41701189D02*
X89139200Y-41796427D01*
X89139200Y-41796427D02*
X89091580Y-41844046D01*
X89186819Y-40272618D02*
X89186819Y-40844046D01*
X89186819Y-40558332D02*
X88186819Y-40558332D01*
X88186819Y-40558332D02*
X88329676Y-40653570D01*
X88329676Y-40653570D02*
X88424914Y-40748808D01*
X88424914Y-40748808D02*
X88472533Y-40844046D01*
X88282057Y-39891665D02*
X88234438Y-39844046D01*
X88234438Y-39844046D02*
X88186819Y-39748808D01*
X88186819Y-39748808D02*
X88186819Y-39510713D01*
X88186819Y-39510713D02*
X88234438Y-39415475D01*
X88234438Y-39415475D02*
X88282057Y-39367856D01*
X88282057Y-39367856D02*
X88377295Y-39320237D01*
X88377295Y-39320237D02*
X88472533Y-39320237D01*
X88472533Y-39320237D02*
X88615390Y-39367856D01*
X88615390Y-39367856D02*
X89186819Y-39939284D01*
X89186819Y-39939284D02*
X89186819Y-39320237D01*
G04 #@! TO.C,SW1*
X109500000Y-39000001D02*
X109500001Y-61000000D01*
X109500001Y-61000000D02*
X131500000Y-60999999D01*
X131499999Y-39000000D02*
X109500000Y-39000001D01*
X131500000Y-60999999D02*
X131499999Y-39000000D01*
G04 #@! TO.C,SW2*
X128500000Y-36600001D02*
X128500001Y-58600000D01*
X128500001Y-58600000D02*
X150500000Y-58599999D01*
X150499999Y-36600000D02*
X128500000Y-36600001D01*
X150500000Y-58599999D02*
X150499999Y-36600000D01*
G04 #@! TO.C,SW3*
X147600000Y-35210001D02*
X147600001Y-57210000D01*
X147600001Y-57210000D02*
X169600000Y-57209999D01*
X169599999Y-35210000D02*
X147600000Y-35210001D01*
X169600000Y-57209999D02*
X169599999Y-35210000D01*
G04 #@! TO.C,SW4*
X166600000Y-36600001D02*
X166600001Y-58600000D01*
X166600001Y-58600000D02*
X188600000Y-58599999D01*
X188599999Y-36600000D02*
X166600000Y-36600001D01*
X188600000Y-58599999D02*
X188599999Y-36600000D01*
G04 #@! TO.C,SW5*
X185700000Y-41400001D02*
X185700001Y-63400000D01*
X185700001Y-63400000D02*
X207700000Y-63399999D01*
X207699999Y-41400000D02*
X185700000Y-41400001D01*
X207700000Y-63399999D02*
X207699999Y-41400000D01*
G04 #@! TO.C,SW6*
X204700000Y-42900001D02*
X204700001Y-64900000D01*
X204700001Y-64900000D02*
X226700000Y-64899999D01*
X226699999Y-42900000D02*
X204700000Y-42900001D01*
X226700000Y-64899999D02*
X226699999Y-42900000D01*
G04 #@! TO.C,SW7*
X109500000Y-58100001D02*
X109500001Y-80100000D01*
X109500001Y-80100000D02*
X131500000Y-80099999D01*
X131499999Y-58100000D02*
X109500000Y-58100001D01*
X131500000Y-80099999D02*
X131499999Y-58100000D01*
G04 #@! TO.C,SW8*
X128500000Y-55700001D02*
X128500001Y-77700000D01*
X128500001Y-77700000D02*
X150500000Y-77699999D01*
X150499999Y-55700000D02*
X128500000Y-55700001D01*
X150500000Y-77699999D02*
X150499999Y-55700000D01*
G04 #@! TO.C,SW9*
X147600000Y-54300001D02*
X147600001Y-76300000D01*
X147600001Y-76300000D02*
X169600000Y-76299999D01*
X169599999Y-54300000D02*
X147600000Y-54300001D01*
X169600000Y-76299999D02*
X169599999Y-54300000D01*
G04 #@! TO.C,SW10*
X166600000Y-55600001D02*
X166600001Y-77600000D01*
X166600001Y-77600000D02*
X188600000Y-77599999D01*
X188599999Y-55600000D02*
X166600000Y-55600001D01*
X188600000Y-77599999D02*
X188599999Y-55600000D01*
G04 #@! TO.C,SW11*
X185700000Y-60300001D02*
X185700001Y-82300000D01*
X185700001Y-82300000D02*
X207700000Y-82299999D01*
X207699999Y-60300000D02*
X185700000Y-60300001D01*
X207700000Y-82299999D02*
X207699999Y-60300000D01*
G04 #@! TO.C,SW12*
X204700000Y-61800001D02*
X204700001Y-83800000D01*
X204700001Y-83800000D02*
X226700000Y-83799999D01*
X226699999Y-61800000D02*
X204700000Y-61800001D01*
X226700000Y-83799999D02*
X226699999Y-61800000D01*
G04 #@! TO.C,SW13*
X109500000Y-77100001D02*
X109500001Y-99100000D01*
X109500001Y-99100000D02*
X131500000Y-99099999D01*
X131499999Y-77100000D02*
X109500000Y-77100001D01*
X131500000Y-99099999D02*
X131499999Y-77100000D01*
G04 #@! TO.C,SW14*
X128500000Y-74700001D02*
X128500001Y-96700000D01*
X128500001Y-96700000D02*
X150500000Y-96699999D01*
X150499999Y-74700000D02*
X128500000Y-74700001D01*
X150500000Y-96699999D02*
X150499999Y-74700000D01*
G04 #@! TO.C,SW15*
X147600000Y-73400001D02*
X147600001Y-95400000D01*
X147600001Y-95400000D02*
X169600000Y-95399999D01*
X169599999Y-73400000D02*
X147600000Y-73400001D01*
X169600000Y-95399999D02*
X169599999Y-73400000D01*
G04 #@! TO.C,SW16*
X166600000Y-74700001D02*
X166600001Y-96700000D01*
X166600001Y-96700000D02*
X188600000Y-96699999D01*
X188599999Y-74700000D02*
X166600000Y-74700001D01*
X188600000Y-96699999D02*
X188599999Y-74700000D01*
G04 #@! TO.C,SW17*
X185700000Y-79500001D02*
X185700001Y-101500000D01*
X185700001Y-101500000D02*
X207700000Y-101499999D01*
X207699999Y-79500000D02*
X185700000Y-79500001D01*
X207700000Y-101499999D02*
X207699999Y-79500000D01*
G04 #@! TO.C,SW18*
X204700000Y-81000001D02*
X204700001Y-103000000D01*
X204700001Y-103000000D02*
X226700000Y-102999999D01*
X226699999Y-81000000D02*
X204700000Y-81000001D01*
X226700000Y-102999999D02*
X226699999Y-81000000D01*
G04 #@! TO.C,SW19*
X109500000Y-96100001D02*
X109500001Y-118100000D01*
X109500001Y-118100000D02*
X131500000Y-118099999D01*
X131499999Y-96100000D02*
X109500000Y-96100001D01*
X131500000Y-118099999D02*
X131499999Y-96100000D01*
G04 #@! TO.C,SW20*
X128500000Y-93800001D02*
X128500001Y-115800000D01*
X128500001Y-115800000D02*
X150500000Y-115799999D01*
X150499999Y-93800000D02*
X128500000Y-93800001D01*
X150500000Y-115799999D02*
X150499999Y-93800000D01*
G04 #@! TO.C,SW21*
X147600000Y-92400001D02*
X147600001Y-114400000D01*
X147600001Y-114400000D02*
X169600000Y-114399999D01*
X169599999Y-92400000D02*
X147600000Y-92400001D01*
X169600000Y-114399999D02*
X169599999Y-92400000D01*
G04 #@! TO.C,SW22*
X166600000Y-93800001D02*
X166600001Y-115800000D01*
X166600001Y-115800000D02*
X188600000Y-115799999D01*
X188599999Y-93800000D02*
X166600000Y-93800001D01*
X188600000Y-115799999D02*
X188599999Y-93800000D01*
G04 #@! TO.C,SW23*
X185700000Y-98500001D02*
X185700001Y-120500000D01*
X185700001Y-120500000D02*
X207700000Y-120499999D01*
X207699999Y-98500000D02*
X185700000Y-98500001D01*
X207700000Y-120499999D02*
X207699999Y-98500000D01*
G04 #@! TO.C,SW24*
X204750000Y-100000001D02*
X204750001Y-122000000D01*
X204750001Y-122000000D02*
X226750000Y-121999999D01*
X226749999Y-100000000D02*
X204750000Y-100000001D01*
X226750000Y-121999999D02*
X226749999Y-100000000D01*
G04 #@! TO.C,SW25*
X90400000Y-86500001D02*
X90400001Y-108500000D01*
X90400001Y-108500000D02*
X112400000Y-108499999D01*
X112399999Y-86500000D02*
X90400000Y-86500001D01*
X112400000Y-108499999D02*
X112399999Y-86500000D01*
G04 #@! TO.C,SW26*
X89973721Y-122973721D02*
X100973721Y-142026279D01*
X100973721Y-142026279D02*
X120026279Y-131026279D01*
X109026279Y-111973721D02*
X89973721Y-122973721D01*
X120026279Y-131026279D02*
X109026279Y-111973721D01*
G04 #@! TO.C,SW27*
X119000000Y-115000001D02*
X119000001Y-137000000D01*
X119000001Y-137000000D02*
X141000000Y-136999999D01*
X140999999Y-115000000D02*
X119000000Y-115000001D01*
X141000000Y-136999999D02*
X140999999Y-115000000D01*
G04 #@! TO.C,SW28*
X138000000Y-112750001D02*
X138000001Y-134750000D01*
X138000001Y-134750000D02*
X160000000Y-134749999D01*
X159999999Y-112750000D02*
X138000000Y-112750001D01*
X160000000Y-134749999D02*
X159999999Y-112750000D01*
G04 #@! TO.C,SW29*
X157100000Y-112750001D02*
X157100001Y-134750000D01*
X157100001Y-134750000D02*
X179100000Y-134749999D01*
X179099999Y-112750000D02*
X157100000Y-112750001D01*
X179100000Y-134749999D02*
X179099999Y-112750000D01*
G04 #@! TD*
M02*
