G04 #@! TF.GenerationSoftware,KiCad,Pcbnew,8.0.5*
G04 #@! TF.CreationDate,2024-10-03T23:55:07-04:00*
G04 #@! TF.ProjectId,Lily58_Pro,4c696c79-3538-45f5-9072-6f2e6b696361,rev?*
G04 #@! TF.SameCoordinates,Original*
G04 #@! TF.FileFunction,OtherDrawing,Comment*
%FSLAX46Y46*%
G04 Gerber Fmt 4.6, Leading zero omitted, Abs format (unit mm)*
G04 Created by KiCad (PCBNEW 8.0.5) date 2024-10-03 23:55:07*
%MOMM*%
%LPD*%
G01*
G04 APERTURE LIST*
%ADD10C,0.150000*%
G04 APERTURE END LIST*
D10*
G04 #@! TO.C,PWSW2*
X81882000Y-42725000D02*
X83382000Y-42725000D01*
X81882000Y-44025000D02*
X81882000Y-42725000D01*
X83382000Y-40925000D02*
X83382000Y-47525000D01*
X83382000Y-40925000D02*
X86082000Y-40925000D01*
X83382000Y-44025000D02*
X81882000Y-44025000D01*
X83382000Y-47525000D02*
X86082000Y-47525000D01*
X83682000Y-42725000D02*
X83382000Y-42725000D01*
X83682000Y-45725000D02*
X83382000Y-45725000D01*
X83682000Y-45725000D02*
X83682000Y-42725000D01*
X86082000Y-40925000D02*
X86082000Y-47525000D01*
G04 #@! TO.C,PWSW1*
X81882000Y-44475000D02*
X83382000Y-44475000D01*
X81882000Y-45775000D02*
X81882000Y-44475000D01*
X83382000Y-40975000D02*
X83382000Y-47575000D01*
X83382000Y-42775000D02*
X83682000Y-42775000D01*
X83382000Y-45775000D02*
X81882000Y-45775000D01*
X83382000Y-45775000D02*
X83682000Y-45775000D01*
X83682000Y-45775000D02*
X83682000Y-42775000D01*
X86082000Y-40975000D02*
X83382000Y-40975000D01*
X86082000Y-40975000D02*
X86082000Y-47575000D01*
X86082000Y-47575000D02*
X83382000Y-47575000D01*
G04 #@! TD*
M02*
