%TF.GenerationSoftware,KiCad,Pcbnew,8.0.5*%
%TF.CreationDate,2024-10-03T23:55:07-04:00*%
%TF.ProjectId,Lily58_Pro,4c696c79-3538-45f5-9072-6f2e6b696361,rev?*%
%TF.SameCoordinates,Original*%
%TF.FileFunction,Drillmap*%
%TF.FilePolarity,Positive*%
%FSLAX45Y45*%
G04 Gerber Fmt 4.5, Leading zero omitted, Abs format (unit mm)*
G04 Created by KiCad (PCBNEW 8.0.5) date 2024-10-03 23:55:07*
%MOMM*%
%LPD*%
G01*
G04 APERTURE LIST*
%ADD10C,0.200000*%
%ADD11C,0.100000*%
%ADD12C,0.130000*%
%ADD13C,0.240000*%
%ADD14C,0.470000*%
G04 APERTURE END LIST*
D10*
X8357930Y-3716921D02*
X8377646Y-3710807D01*
X22088932Y-4096385D02*
X21552570Y-3988516D01*
X17831935Y-12428973D02*
X17831935Y-12550777D01*
X8293753Y-5705756D02*
X8293753Y-5075063D01*
X9439604Y-3708676D02*
X8398821Y-3708676D01*
X13602738Y-3708676D02*
X12561954Y-3708676D01*
X9837134Y-13432002D02*
X10004704Y-13718634D01*
X8686311Y-11253067D02*
X8829176Y-11631807D01*
X13997174Y-13551166D02*
X14734126Y-13551166D01*
X10004704Y-13718634D02*
X10172273Y-14005266D01*
X8293753Y-6967143D02*
X8293753Y-6336449D01*
X17831935Y-13401166D02*
X17828890Y-13431415D01*
X22534222Y-11987389D02*
X22520400Y-12012870D01*
X18045633Y-12106456D02*
X18111352Y-12086078D01*
X21342484Y-12078973D02*
X21869242Y-12078973D01*
X22542955Y-11959223D02*
X22534222Y-11987389D01*
X19762209Y-12078973D02*
X20288967Y-12078973D01*
X22546000Y-11928973D02*
X22542955Y-11959223D01*
X16725088Y-3708676D02*
X15684305Y-3708676D01*
X18708693Y-12078973D02*
X19235451Y-12078973D01*
X20815726Y-12078973D02*
X21342484Y-12078973D01*
X13260222Y-13551166D02*
X13997174Y-13551166D01*
X15684305Y-3708676D02*
X14643521Y-3708676D01*
X22546000Y-6240000D02*
X22546000Y-7188162D01*
X10428886Y-14335728D02*
X10445676Y-14327176D01*
X22546000Y-4343676D02*
X22427847Y-4215619D01*
X8302066Y-3772785D02*
X8311741Y-3754949D01*
X17831935Y-12550777D02*
X17831935Y-12672581D01*
X17891668Y-12233216D02*
X17934388Y-12181427D01*
X9166856Y-12285474D02*
X9334426Y-12572106D01*
X17740350Y-13539388D02*
X17712184Y-13548121D01*
X22546000Y-4343676D02*
X22546000Y-5291838D01*
X17831935Y-13159797D02*
X17831935Y-13281601D01*
X8377646Y-3710807D02*
X8398821Y-3708676D01*
X19235451Y-12078973D02*
X19762209Y-12078973D01*
X19980765Y-3817049D02*
X18991954Y-3758537D01*
X16208030Y-13551166D02*
X16944983Y-13551166D01*
X12561954Y-3708676D02*
X11521171Y-3708676D01*
X9334426Y-12572106D02*
X9501995Y-12858738D01*
X18111352Y-12086078D02*
X18181935Y-12078973D01*
X8324557Y-3739412D02*
X8340094Y-3726596D01*
X20842076Y-3894556D02*
X19980765Y-3817049D01*
X17806335Y-13485062D02*
X17788026Y-13507257D01*
X8313569Y-9261756D02*
X8349030Y-9665766D01*
X17934388Y-12181427D02*
X17986177Y-12138706D01*
X17986177Y-12138706D02*
X18045633Y-12106456D01*
X8295952Y-3792501D02*
X8302066Y-3772785D01*
X10948384Y-14036134D02*
X11115954Y-13939120D01*
X10445676Y-14327176D02*
X10613245Y-14230162D01*
X20288967Y-12078973D02*
X20815726Y-12078973D01*
X8293753Y-7597836D02*
X8293753Y-6967143D01*
X8311741Y-3754949D02*
X8324557Y-3739412D01*
X11521171Y-3708676D02*
X10480388Y-3708676D01*
X11451092Y-13745092D02*
X11618662Y-13648078D01*
X11618662Y-13648078D02*
X11786231Y-13551064D01*
X22454415Y-12067195D02*
X22426249Y-12075929D01*
X11283523Y-13842106D02*
X11451092Y-13745092D01*
X18181935Y-12078973D02*
X18708693Y-12078973D01*
X14643521Y-3708676D02*
X13602738Y-3708676D01*
X8293753Y-6336449D02*
X8293753Y-5705756D01*
X17828890Y-13431415D02*
X17820157Y-13459581D01*
X17765831Y-13525566D02*
X17740350Y-13539388D01*
X17831935Y-12916189D02*
X17831935Y-13037993D01*
X10480388Y-3708676D02*
X9439604Y-3708676D01*
X10613245Y-14230162D02*
X10780815Y-14133148D01*
X10780815Y-14133148D02*
X10948384Y-14036134D01*
X10398125Y-14341397D02*
X10413021Y-14340447D01*
X17831935Y-12794385D02*
X17831935Y-12916189D01*
X8568800Y-10864913D02*
X8686311Y-11253067D01*
X17712184Y-13548121D02*
X17681935Y-13551166D01*
X17898956Y-3721565D02*
X16725088Y-3708676D01*
X8340094Y-3726596D02*
X8357930Y-3716921D01*
X10413021Y-14340447D02*
X10428886Y-14335728D01*
X8829176Y-11631807D02*
X8999333Y-11998954D01*
X8293753Y-5075063D02*
X8293753Y-4444370D01*
X8293778Y-8859232D02*
X8313569Y-9261756D01*
X10339843Y-14291898D02*
X10349184Y-14308815D01*
X15471078Y-13551166D02*
X16208030Y-13551166D01*
X14734126Y-13551166D02*
X15471078Y-13551166D01*
X17859417Y-12292671D02*
X17891668Y-12233216D01*
X17820157Y-13459581D02*
X17806335Y-13485062D01*
X22427847Y-4215619D02*
X22088932Y-4096385D01*
X21869242Y-12078973D02*
X22396000Y-12078973D01*
X9501995Y-12858738D02*
X9669565Y-13145370D01*
X10371433Y-14332253D02*
X10384247Y-14338644D01*
X22479896Y-12053374D02*
X22454415Y-12067195D01*
X17831935Y-13281601D02*
X17831935Y-13401166D01*
X10172273Y-14005266D02*
X10339843Y-14291898D01*
X22546000Y-10980811D02*
X22546000Y-11928973D01*
X8293753Y-4444370D02*
X8293753Y-3813676D01*
X22546000Y-10032649D02*
X22546000Y-10980811D01*
X8402097Y-10069083D02*
X8474708Y-10469525D01*
X22546000Y-9084487D02*
X22546000Y-10032649D01*
X17831935Y-12672581D02*
X17831935Y-12794385D01*
X22520400Y-12012870D02*
X22502091Y-12035065D01*
X17788026Y-13507257D02*
X17765831Y-13525566D01*
X17839039Y-12358391D02*
X17859417Y-12292671D01*
X8293821Y-3813676D02*
X8295952Y-3792501D01*
X10384247Y-14338644D02*
X10398125Y-14341397D01*
X17831935Y-13037993D02*
X17831935Y-13159797D01*
X16944983Y-13551166D02*
X17681935Y-13551166D01*
X21552570Y-3988516D02*
X20842076Y-3894556D01*
X8474708Y-10469525D02*
X8568800Y-10864913D01*
X11786317Y-13551166D02*
X12523269Y-13551166D01*
X22546000Y-5291838D02*
X22546000Y-6240000D01*
X12523269Y-13551166D02*
X13260222Y-13551166D01*
X8293753Y-8228530D02*
X8293753Y-7597836D01*
X22426249Y-12075929D02*
X22396000Y-12078973D01*
X17831935Y-12428973D02*
X17839039Y-12358391D01*
X8999287Y-11998842D02*
X9166856Y-12285474D01*
X22502091Y-12035065D02*
X22479896Y-12053374D01*
X18991954Y-3758537D02*
X17898956Y-3721565D01*
X8293753Y-8859223D02*
X8293753Y-8228530D01*
X11115954Y-13939120D02*
X11283523Y-13842106D01*
X10359730Y-14322288D02*
X10371433Y-14332253D01*
X9669565Y-13145370D02*
X9837134Y-13432002D01*
X22546000Y-7188162D02*
X22546000Y-8136324D01*
X10349184Y-14308815D02*
X10359730Y-14322288D01*
X8349030Y-9665766D02*
X8402097Y-10069083D01*
X22546000Y-8136324D02*
X22546000Y-9084487D01*
D11*
X8785000Y-4627500D02*
X8815000Y-4657500D01*
X8815000Y-4627500D02*
X8785000Y-4657500D01*
X8961700Y-4261700D02*
X8991700Y-4291700D01*
X8991700Y-4261700D02*
X8961700Y-4291700D01*
X8985000Y-4755000D02*
X9015000Y-4785000D01*
X9015000Y-4755000D02*
X8985000Y-4785000D01*
X9305000Y-9225000D02*
X9335000Y-9255000D01*
X9335000Y-9225000D02*
X9305000Y-9255000D01*
X9447500Y-4102500D02*
X9477500Y-4132500D01*
X9477500Y-4102500D02*
X9447500Y-4132500D01*
X9587500Y-6720000D02*
X9617500Y-6750000D01*
X9617500Y-6720000D02*
X9587500Y-6750000D01*
X9595000Y-5124000D02*
X9625000Y-5154000D01*
X9625000Y-5124000D02*
X9595000Y-5154000D01*
X9655000Y-5377500D02*
X9685000Y-5407500D01*
X9685000Y-5377500D02*
X9655000Y-5407500D01*
X9675000Y-4481575D02*
X9705000Y-4511575D01*
X9705000Y-4481575D02*
X9675000Y-4511575D01*
X9675000Y-4865000D02*
X9705000Y-4895000D01*
X9705000Y-4865000D02*
X9675000Y-4895000D01*
X9719623Y-6662123D02*
X9749623Y-6692123D01*
X9749623Y-6662123D02*
X9719623Y-6692123D01*
X9955000Y-4865000D02*
X9985000Y-4895000D01*
X9985000Y-4865000D02*
X9955000Y-4895000D01*
X9955000Y-6697500D02*
X9985000Y-6727500D01*
X9985000Y-6697500D02*
X9955000Y-6727500D01*
X10025000Y-4989575D02*
X10055000Y-5019575D01*
X10055000Y-4989575D02*
X10025000Y-5019575D01*
X10155000Y-6645000D02*
X10185000Y-6675000D01*
X10185000Y-6645000D02*
X10155000Y-6675000D01*
X10205000Y-13055000D02*
X10235000Y-13085000D01*
X10235000Y-13055000D02*
X10205000Y-13085000D01*
X10252500Y-5751574D02*
X10282500Y-5781574D01*
X10282500Y-5751574D02*
X10252500Y-5781574D01*
X10302500Y-6005574D02*
X10332500Y-6035574D01*
X10332500Y-6005574D02*
X10302500Y-6035574D01*
X10355000Y-6259574D02*
X10385000Y-6289574D01*
X10385000Y-6259574D02*
X10355000Y-6289574D01*
X10375000Y-13675000D02*
X10405000Y-13705000D01*
X10405000Y-13675000D02*
X10375000Y-13705000D01*
X10405000Y-10084999D02*
X10435000Y-10114999D01*
X10435000Y-10084999D02*
X10405000Y-10114999D01*
X10415000Y-6442500D02*
X10445000Y-6472500D01*
X10445000Y-6442500D02*
X10415000Y-6472500D01*
X10415000Y-6740000D02*
X10445000Y-6770000D01*
X10445000Y-6740000D02*
X10415000Y-6770000D01*
X10485000Y-6585000D02*
X10515000Y-6615000D01*
X10515000Y-6585000D02*
X10485000Y-6615000D01*
X10517783Y-6692217D02*
X10547783Y-6722217D01*
X10547783Y-6692217D02*
X10517783Y-6722217D01*
X10545000Y-5125000D02*
X10575000Y-5155000D01*
X10575000Y-5125000D02*
X10545000Y-5155000D01*
X10545000Y-6505000D02*
X10575000Y-6535000D01*
X10575000Y-6505000D02*
X10545000Y-6535000D01*
X10547500Y-6917500D02*
X10577500Y-6947500D01*
X10577500Y-6917500D02*
X10547500Y-6947500D01*
X10554999Y-5655000D02*
X10584999Y-5685000D01*
X10584999Y-5655000D02*
X10554999Y-5685000D01*
X10555000Y-4385000D02*
X10585000Y-4415000D01*
X10585000Y-4385000D02*
X10555000Y-4415000D01*
X10555000Y-5885000D02*
X10585000Y-5915000D01*
X10585000Y-5885000D02*
X10555000Y-5915000D01*
X10555000Y-6175000D02*
X10585000Y-6205000D01*
X10585000Y-6175000D02*
X10555000Y-6205000D01*
X10555000Y-6385000D02*
X10585000Y-6415000D01*
X10585000Y-6385000D02*
X10555000Y-6415000D01*
X10555001Y-4145000D02*
X10585001Y-4175000D01*
X10585001Y-4145000D02*
X10555001Y-4175000D01*
X10555002Y-5405000D02*
X10585002Y-5435000D01*
X10585002Y-5405000D02*
X10555002Y-5435000D01*
X10705000Y-11695000D02*
X10735000Y-11725000D01*
X10735000Y-11695000D02*
X10705000Y-11725000D01*
X10815000Y-9965000D02*
X10845000Y-9995000D01*
X10845000Y-9965000D02*
X10815000Y-9995000D01*
X10945000Y-9235001D02*
X10975000Y-9265001D01*
X10975000Y-9235001D02*
X10945000Y-9265001D01*
X11015000Y-6395000D02*
X11045000Y-6425000D01*
X11045000Y-6395000D02*
X11015000Y-6425000D01*
X11215000Y-6395000D02*
X11245000Y-6425000D01*
X11245000Y-6395000D02*
X11215000Y-6425000D01*
X11215000Y-8285000D02*
X11245000Y-8315000D01*
X11245000Y-8285000D02*
X11215000Y-8315000D01*
X11224999Y-4475000D02*
X11254999Y-4505000D01*
X11254999Y-4475000D02*
X11224999Y-4505000D01*
X11225000Y-10184999D02*
X11255000Y-10214999D01*
X11255000Y-10184999D02*
X11225000Y-10214999D01*
X11305000Y-13155000D02*
X11335000Y-13185000D01*
X11335000Y-13155000D02*
X11305000Y-13185000D01*
X12175000Y-12075000D02*
X12205000Y-12105000D01*
X12205000Y-12075000D02*
X12175000Y-12105000D01*
X12314999Y-5335000D02*
X12344999Y-5365000D01*
X12344999Y-5335000D02*
X12314999Y-5365000D01*
X12315000Y-9135001D02*
X12345000Y-9165001D01*
X12345000Y-9135001D02*
X12315000Y-9165001D01*
X12315000Y-11034999D02*
X12345000Y-11064999D01*
X12345000Y-11034999D02*
X12315000Y-11064999D01*
X12315001Y-7245000D02*
X12345001Y-7275000D01*
X12345001Y-7245000D02*
X12315001Y-7275000D01*
X12725000Y-5215000D02*
X12755000Y-5245000D01*
X12755000Y-5215000D02*
X12725000Y-5245000D01*
X12725000Y-7125000D02*
X12755000Y-7155000D01*
X12755000Y-7125000D02*
X12725000Y-7155000D01*
X12725000Y-9025000D02*
X12755000Y-9055000D01*
X12755000Y-9025000D02*
X12725000Y-9055000D01*
X12725000Y-10925000D02*
X12755000Y-10955000D01*
X12755000Y-10925000D02*
X12725000Y-10955000D01*
X12835000Y-4475000D02*
X12865000Y-4505000D01*
X12865000Y-4475000D02*
X12835000Y-4505000D01*
X12845000Y-10185000D02*
X12875000Y-10215000D01*
X12875000Y-10185000D02*
X12845000Y-10215000D01*
X12855000Y-6385000D02*
X12885000Y-6415000D01*
X12885000Y-6385000D02*
X12855000Y-6415000D01*
X12855000Y-8285000D02*
X12885000Y-8315000D01*
X12885000Y-8285000D02*
X12855000Y-8315000D01*
X13115000Y-8045000D02*
X13145000Y-8075000D01*
X13145000Y-8045000D02*
X13115000Y-8075000D01*
X13115000Y-10025000D02*
X13145000Y-10055000D01*
X13145000Y-10025000D02*
X13115000Y-10055000D01*
X13125000Y-4235000D02*
X13155000Y-4265000D01*
X13155000Y-4235000D02*
X13125000Y-4265000D01*
X13125000Y-6205000D02*
X13155000Y-6235000D01*
X13155000Y-6205000D02*
X13125000Y-6235000D01*
X13265001Y-12925000D02*
X13295001Y-12955000D01*
X13295001Y-12925000D02*
X13265001Y-12955000D01*
X13675000Y-12815000D02*
X13705000Y-12845000D01*
X13705000Y-12815000D02*
X13675000Y-12845000D01*
X13785000Y-12075000D02*
X13815000Y-12105000D01*
X13815000Y-12075000D02*
X13785000Y-12105000D01*
X14065000Y-11855000D02*
X14095000Y-11885000D01*
X14095000Y-11855000D02*
X14065000Y-11885000D01*
X14214999Y-8915000D02*
X14244999Y-8945000D01*
X14244999Y-8915000D02*
X14214999Y-8945000D01*
X14215000Y-5084999D02*
X14245000Y-5114999D01*
X14245000Y-5084999D02*
X14215000Y-5114999D01*
X14215000Y-10815001D02*
X14245000Y-10845001D01*
X14245000Y-10815001D02*
X14215000Y-10845001D01*
X14215001Y-7005000D02*
X14245001Y-7035000D01*
X14245001Y-7005000D02*
X14215001Y-7035000D01*
X14625000Y-4975000D02*
X14655000Y-5005000D01*
X14655000Y-4975000D02*
X14625000Y-5005000D01*
X14625000Y-6885000D02*
X14655000Y-6915000D01*
X14655000Y-6885000D02*
X14625000Y-6915000D01*
X14625000Y-8785000D02*
X14655000Y-8815000D01*
X14655000Y-8785000D02*
X14625000Y-8815000D01*
X14625000Y-10695000D02*
X14655000Y-10725000D01*
X14655000Y-10695000D02*
X14625000Y-10725000D01*
X14735000Y-6145000D02*
X14765000Y-6175000D01*
X14765000Y-6145000D02*
X14735000Y-6175000D01*
X14745000Y-4235000D02*
X14775000Y-4265000D01*
X14775000Y-4235000D02*
X14745000Y-4265000D01*
X14745000Y-9955000D02*
X14775000Y-9985000D01*
X14775000Y-9955000D02*
X14745000Y-9985000D01*
X14765000Y-8045000D02*
X14795000Y-8075000D01*
X14795000Y-8045000D02*
X14765000Y-8075000D01*
X15015000Y-9815000D02*
X15045000Y-9845000D01*
X15045000Y-9815000D02*
X15015000Y-9845000D01*
X15025000Y-7915000D02*
X15055000Y-7945000D01*
X15055000Y-7915000D02*
X15025000Y-7945000D01*
X15035000Y-4095000D02*
X15065000Y-4125000D01*
X15065000Y-4095000D02*
X15035000Y-4125000D01*
X15045000Y-6005000D02*
X15075000Y-6035000D01*
X15075000Y-6005000D02*
X15045000Y-6035000D01*
X15165000Y-12695000D02*
X15195000Y-12725000D01*
X15195000Y-12695000D02*
X15165000Y-12725000D01*
X15575000Y-12595000D02*
X15605000Y-12625000D01*
X15605000Y-12595000D02*
X15575000Y-12625000D01*
X15695000Y-11855000D02*
X15725000Y-11885000D01*
X15725000Y-11855000D02*
X15695000Y-11885000D01*
X15975000Y-11855000D02*
X16005000Y-11885000D01*
X16005000Y-11855000D02*
X15975000Y-11885000D01*
X16124999Y-6855000D02*
X16154999Y-6885000D01*
X16154999Y-6855000D02*
X16124999Y-6885000D01*
X16125000Y-4945000D02*
X16155000Y-4975000D01*
X16155000Y-4945000D02*
X16125000Y-4975000D01*
X16125000Y-8764999D02*
X16155000Y-8794999D01*
X16155000Y-8764999D02*
X16125000Y-8794999D01*
X16125000Y-10675000D02*
X16155000Y-10705000D01*
X16155000Y-10675000D02*
X16125000Y-10705000D01*
X16535000Y-4835000D02*
X16565000Y-4865000D01*
X16565000Y-4835000D02*
X16535000Y-4865000D01*
X16535000Y-6745000D02*
X16565000Y-6775000D01*
X16565000Y-6745000D02*
X16535000Y-6775000D01*
X16535000Y-8655000D02*
X16565000Y-8685000D01*
X16565000Y-8655000D02*
X16535000Y-8685000D01*
X16535000Y-10555000D02*
X16565000Y-10585000D01*
X16565000Y-10555000D02*
X16535000Y-10585000D01*
X16645000Y-6005000D02*
X16675000Y-6035000D01*
X16675000Y-6005000D02*
X16645000Y-6035000D01*
X16655000Y-4095000D02*
X16685000Y-4125000D01*
X16685000Y-4095000D02*
X16655000Y-4125000D01*
X16665000Y-7915000D02*
X16695000Y-7945000D01*
X16695000Y-7915000D02*
X16665000Y-7945000D01*
X16665000Y-9815000D02*
X16695000Y-9845000D01*
X16695000Y-9815000D02*
X16665000Y-9845000D01*
X16925000Y-4235000D02*
X16955000Y-4265000D01*
X16955000Y-4235000D02*
X16925000Y-4265000D01*
X16925000Y-9955000D02*
X16955000Y-9985000D01*
X16955000Y-9955000D02*
X16925000Y-9985000D01*
X16935000Y-6135000D02*
X16965000Y-6165000D01*
X16965000Y-6135000D02*
X16935000Y-6165000D01*
X16935000Y-8045000D02*
X16965000Y-8075000D01*
X16965000Y-8045000D02*
X16935000Y-8075000D01*
X17075001Y-12715000D02*
X17105001Y-12745000D01*
X17105001Y-12715000D02*
X17075001Y-12745000D01*
X17485000Y-12585000D02*
X17515000Y-12615000D01*
X17515000Y-12585000D02*
X17485000Y-12615000D01*
X17605000Y-11855000D02*
X17635000Y-11885000D01*
X17635000Y-11855000D02*
X17605000Y-11885000D01*
X18024999Y-10805000D02*
X18054999Y-10835000D01*
X18054999Y-10805000D02*
X18024999Y-10835000D01*
X18025000Y-5085000D02*
X18055000Y-5115000D01*
X18055000Y-5085000D02*
X18025000Y-5115000D01*
X18025000Y-6985001D02*
X18055000Y-7015001D01*
X18055000Y-6985001D02*
X18025000Y-7015001D01*
X18025000Y-8895000D02*
X18055000Y-8925000D01*
X18055000Y-8895000D02*
X18025000Y-8925000D01*
X18435000Y-4975000D02*
X18465000Y-5005000D01*
X18465000Y-4975000D02*
X18435000Y-5005000D01*
X18435000Y-6875000D02*
X18465000Y-6905000D01*
X18465000Y-6875000D02*
X18435000Y-6905000D01*
X18435000Y-8785000D02*
X18465000Y-8815000D01*
X18465000Y-8785000D02*
X18435000Y-8815000D01*
X18435000Y-10695000D02*
X18465000Y-10725000D01*
X18465000Y-10695000D02*
X18435000Y-10725000D01*
X18545000Y-6135000D02*
X18575000Y-6165000D01*
X18575000Y-6135000D02*
X18545000Y-6165000D01*
X18545000Y-9955000D02*
X18575000Y-9985000D01*
X18575000Y-9955000D02*
X18545000Y-9985000D01*
X18555000Y-4235000D02*
X18585000Y-4265000D01*
X18585000Y-4235000D02*
X18555000Y-4265000D01*
X18575000Y-8045000D02*
X18605000Y-8075000D01*
X18605000Y-8045000D02*
X18575000Y-8075000D01*
X18835000Y-8525000D02*
X18865000Y-8555000D01*
X18865000Y-8525000D02*
X18835000Y-8555000D01*
X18835000Y-10425000D02*
X18865000Y-10455000D01*
X18865000Y-10425000D02*
X18835000Y-10455000D01*
X18845000Y-4715000D02*
X18875000Y-4745000D01*
X18875000Y-4715000D02*
X18845000Y-4745000D01*
X18845000Y-6605000D02*
X18875000Y-6635000D01*
X18875000Y-6605000D02*
X18845000Y-6635000D01*
X19934999Y-5565000D02*
X19964999Y-5595000D01*
X19964999Y-5565000D02*
X19934999Y-5595000D01*
X19935000Y-9375000D02*
X19965000Y-9405000D01*
X19965000Y-9375000D02*
X19935000Y-9405000D01*
X19935000Y-7455000D02*
X19965000Y-7485000D01*
X19965000Y-7455000D02*
X19935000Y-7485000D01*
X19935001Y-11295000D02*
X19965001Y-11325000D01*
X19965001Y-11295000D02*
X19935001Y-11325000D01*
X20345000Y-5455000D02*
X20375000Y-5485000D01*
X20375000Y-5455000D02*
X20345000Y-5485000D01*
X20345000Y-7345000D02*
X20375000Y-7375000D01*
X20375000Y-7345000D02*
X20345000Y-7375000D01*
X20345000Y-9265000D02*
X20375000Y-9295000D01*
X20375000Y-9265000D02*
X20345000Y-9295000D01*
X20345000Y-11165000D02*
X20375000Y-11195000D01*
X20375000Y-11165000D02*
X20345000Y-11195000D01*
X20455000Y-4715000D02*
X20485000Y-4745000D01*
X20485000Y-4715000D02*
X20455000Y-4745000D01*
X20455000Y-6605000D02*
X20485000Y-6635000D01*
X20485000Y-6605000D02*
X20455000Y-6635000D01*
X20475000Y-8525000D02*
X20505000Y-8555000D01*
X20505000Y-8525000D02*
X20475000Y-8555000D01*
X20475000Y-10425000D02*
X20505000Y-10455000D01*
X20505000Y-10425000D02*
X20475000Y-10455000D01*
X20705000Y-4865000D02*
X20735000Y-4895000D01*
X20735000Y-4865000D02*
X20705000Y-4895000D01*
X20735000Y-10575000D02*
X20765000Y-10605000D01*
X20765000Y-10575000D02*
X20735000Y-10605000D01*
X20745000Y-6755000D02*
X20775000Y-6785000D01*
X20775000Y-6755000D02*
X20745000Y-6785000D01*
X20745001Y-8675000D02*
X20775001Y-8705000D01*
X20775001Y-8675000D02*
X20745001Y-8705000D01*
X21835000Y-5704999D02*
X21865000Y-5734999D01*
X21865000Y-5704999D02*
X21835000Y-5734999D01*
X21835000Y-7605000D02*
X21865000Y-7635000D01*
X21865000Y-7605000D02*
X21835000Y-7635000D01*
X21835000Y-9515000D02*
X21865000Y-9545000D01*
X21865000Y-9515000D02*
X21835000Y-9545000D01*
X21835000Y-11444999D02*
X21865000Y-11474999D01*
X21865000Y-11444999D02*
X21835000Y-11474999D01*
X22245000Y-5605000D02*
X22275000Y-5635000D01*
X22275000Y-5605000D02*
X22245000Y-5635000D01*
X22245000Y-7495000D02*
X22275000Y-7525000D01*
X22275000Y-7495000D02*
X22245000Y-7525000D01*
X22245000Y-9415000D02*
X22275000Y-9445000D01*
X22275000Y-9415000D02*
X22245000Y-9445000D01*
X22245000Y-11315000D02*
X22275000Y-11345000D01*
X22275000Y-11315000D02*
X22245000Y-11345000D01*
X22355000Y-4865000D02*
X22385000Y-4895000D01*
X22385000Y-4865000D02*
X22355000Y-4895000D01*
X22355000Y-6755000D02*
X22385000Y-6785000D01*
X22385000Y-6755000D02*
X22355000Y-6785000D01*
X22375000Y-8675000D02*
X22405000Y-8705000D01*
X22405000Y-8675000D02*
X22375000Y-8705000D01*
X22375000Y-10575000D02*
X22405000Y-10605000D01*
X22405000Y-10575000D02*
X22375000Y-10605000D01*
X10410000Y-8950000D02*
G75*
G02*
X10370000Y-8950000I-20000J0D01*
G01*
X10370000Y-8950000D02*
G75*
G02*
X10410000Y-8950000I20000J0D01*
G01*
X10750000Y-8950000D02*
G75*
G02*
X10710000Y-8950000I-20000J0D01*
G01*
X10710000Y-8950000D02*
G75*
G02*
X10750000Y-8950000I20000J0D01*
G01*
X10915000Y-11782776D02*
G75*
G02*
X10875000Y-11782776I-20000J0D01*
G01*
X10875000Y-11782776D02*
G75*
G02*
X10915000Y-11782776I20000J0D01*
G01*
X11085000Y-12077224D02*
G75*
G02*
X11045000Y-12077224I-20000J0D01*
G01*
X11045000Y-12077224D02*
G75*
G02*
X11085000Y-12077224I20000J0D01*
G01*
X11290000Y-5800000D02*
G75*
G02*
X11250000Y-5800000I-20000J0D01*
G01*
X11250000Y-5800000D02*
G75*
G02*
X11290000Y-5800000I20000J0D01*
G01*
X11290000Y-6110000D02*
G75*
G02*
X11250000Y-6110000I-20000J0D01*
G01*
X11250000Y-6110000D02*
G75*
G02*
X11290000Y-6110000I20000J0D01*
G01*
X11290000Y-9600000D02*
G75*
G02*
X11250000Y-9600000I-20000J0D01*
G01*
X11250000Y-9600000D02*
G75*
G02*
X11290000Y-9600000I20000J0D01*
G01*
X11290000Y-9910000D02*
G75*
G02*
X11250000Y-9910000I-20000J0D01*
G01*
X11250000Y-9910000D02*
G75*
G02*
X11290000Y-9910000I20000J0D01*
G01*
X11630000Y-5800000D02*
G75*
G02*
X11590000Y-5800000I-20000J0D01*
G01*
X11590000Y-5800000D02*
G75*
G02*
X11630000Y-5800000I20000J0D01*
G01*
X11630000Y-6110000D02*
G75*
G02*
X11590000Y-6110000I-20000J0D01*
G01*
X11590000Y-6110000D02*
G75*
G02*
X11630000Y-6110000I20000J0D01*
G01*
X11630000Y-9600000D02*
G75*
G02*
X11590000Y-9600000I-20000J0D01*
G01*
X11590000Y-9600000D02*
G75*
G02*
X11630000Y-9600000I20000J0D01*
G01*
X11630000Y-9910000D02*
G75*
G02*
X11590000Y-9910000I-20000J0D01*
G01*
X11590000Y-9910000D02*
G75*
G02*
X11630000Y-9910000I20000J0D01*
G01*
X12240000Y-11800000D02*
G75*
G02*
X12200000Y-11800000I-20000J0D01*
G01*
X12200000Y-11800000D02*
G75*
G02*
X12240000Y-11800000I20000J0D01*
G01*
X12580000Y-11800000D02*
G75*
G02*
X12540000Y-11800000I-20000J0D01*
G01*
X12540000Y-11800000D02*
G75*
G02*
X12580000Y-11800000I20000J0D01*
G01*
X13280000Y-5570000D02*
G75*
G02*
X13240000Y-5570000I-20000J0D01*
G01*
X13240000Y-5570000D02*
G75*
G02*
X13280000Y-5570000I20000J0D01*
G01*
X13280000Y-9380000D02*
G75*
G02*
X13240000Y-9380000I-20000J0D01*
G01*
X13240000Y-9380000D02*
G75*
G02*
X13280000Y-9380000I20000J0D01*
G01*
X13380000Y-5870000D02*
G75*
G02*
X13340000Y-5870000I-20000J0D01*
G01*
X13340000Y-5870000D02*
G75*
G02*
X13380000Y-5870000I20000J0D01*
G01*
X13380000Y-9680000D02*
G75*
G02*
X13340000Y-9680000I-20000J0D01*
G01*
X13340000Y-9680000D02*
G75*
G02*
X13380000Y-9680000I20000J0D01*
G01*
X13620000Y-5570000D02*
G75*
G02*
X13580000Y-5570000I-20000J0D01*
G01*
X13580000Y-5570000D02*
G75*
G02*
X13620000Y-5570000I20000J0D01*
G01*
X13620000Y-9380000D02*
G75*
G02*
X13580000Y-9380000I-20000J0D01*
G01*
X13580000Y-9380000D02*
G75*
G02*
X13620000Y-9380000I20000J0D01*
G01*
X13720000Y-5870000D02*
G75*
G02*
X13680000Y-5870000I-20000J0D01*
G01*
X13680000Y-5870000D02*
G75*
G02*
X13720000Y-5870000I20000J0D01*
G01*
X13720000Y-9680000D02*
G75*
G02*
X13680000Y-9680000I-20000J0D01*
G01*
X13680000Y-9680000D02*
G75*
G02*
X13720000Y-9680000I20000J0D01*
G01*
X14140000Y-11580000D02*
G75*
G02*
X14100000Y-11580000I-20000J0D01*
G01*
X14100000Y-11580000D02*
G75*
G02*
X14140000Y-11580000I20000J0D01*
G01*
X14480000Y-11580000D02*
G75*
G02*
X14440000Y-11580000I-20000J0D01*
G01*
X14440000Y-11580000D02*
G75*
G02*
X14480000Y-11580000I20000J0D01*
G01*
X15100000Y-5420000D02*
G75*
G02*
X15060000Y-5420000I-20000J0D01*
G01*
X15060000Y-5420000D02*
G75*
G02*
X15100000Y-5420000I20000J0D01*
G01*
X15100000Y-9230000D02*
G75*
G02*
X15060000Y-9230000I-20000J0D01*
G01*
X15060000Y-9230000D02*
G75*
G02*
X15100000Y-9230000I20000J0D01*
G01*
X15100000Y-9540000D02*
G75*
G02*
X15060000Y-9540000I-20000J0D01*
G01*
X15060000Y-9540000D02*
G75*
G02*
X15100000Y-9540000I20000J0D01*
G01*
X15110000Y-5740000D02*
G75*
G02*
X15070000Y-5740000I-20000J0D01*
G01*
X15070000Y-5740000D02*
G75*
G02*
X15110000Y-5740000I20000J0D01*
G01*
X15440000Y-5420000D02*
G75*
G02*
X15400000Y-5420000I-20000J0D01*
G01*
X15400000Y-5420000D02*
G75*
G02*
X15440000Y-5420000I20000J0D01*
G01*
X15440000Y-9230000D02*
G75*
G02*
X15400000Y-9230000I-20000J0D01*
G01*
X15400000Y-9230000D02*
G75*
G02*
X15440000Y-9230000I20000J0D01*
G01*
X15440000Y-9540000D02*
G75*
G02*
X15400000Y-9540000I-20000J0D01*
G01*
X15400000Y-9540000D02*
G75*
G02*
X15440000Y-9540000I20000J0D01*
G01*
X15450000Y-5740000D02*
G75*
G02*
X15410000Y-5740000I-20000J0D01*
G01*
X15410000Y-5740000D02*
G75*
G02*
X15450000Y-5740000I20000J0D01*
G01*
X16050000Y-11580000D02*
G75*
G02*
X16010000Y-11580000I-20000J0D01*
G01*
X16010000Y-11580000D02*
G75*
G02*
X16050000Y-11580000I20000J0D01*
G01*
X16390000Y-11580000D02*
G75*
G02*
X16350000Y-11580000I-20000J0D01*
G01*
X16350000Y-11580000D02*
G75*
G02*
X16390000Y-11580000I20000J0D01*
G01*
X17000000Y-5560000D02*
G75*
G02*
X16960000Y-5560000I-20000J0D01*
G01*
X16960000Y-5560000D02*
G75*
G02*
X17000000Y-5560000I20000J0D01*
G01*
X17000000Y-5870000D02*
G75*
G02*
X16960000Y-5870000I-20000J0D01*
G01*
X16960000Y-5870000D02*
G75*
G02*
X17000000Y-5870000I20000J0D01*
G01*
X17000000Y-9360000D02*
G75*
G02*
X16960000Y-9360000I-20000J0D01*
G01*
X16960000Y-9360000D02*
G75*
G02*
X17000000Y-9360000I20000J0D01*
G01*
X17000000Y-9680000D02*
G75*
G02*
X16960000Y-9680000I-20000J0D01*
G01*
X16960000Y-9680000D02*
G75*
G02*
X17000000Y-9680000I20000J0D01*
G01*
X17340000Y-5560000D02*
G75*
G02*
X17300000Y-5560000I-20000J0D01*
G01*
X17300000Y-5560000D02*
G75*
G02*
X17340000Y-5560000I20000J0D01*
G01*
X17340000Y-5870000D02*
G75*
G02*
X17300000Y-5870000I-20000J0D01*
G01*
X17300000Y-5870000D02*
G75*
G02*
X17340000Y-5870000I20000J0D01*
G01*
X17340000Y-9360000D02*
G75*
G02*
X17300000Y-9360000I-20000J0D01*
G01*
X17300000Y-9360000D02*
G75*
G02*
X17340000Y-9360000I20000J0D01*
G01*
X17340000Y-9680000D02*
G75*
G02*
X17300000Y-9680000I-20000J0D01*
G01*
X17300000Y-9680000D02*
G75*
G02*
X17340000Y-9680000I20000J0D01*
G01*
X18910000Y-6040000D02*
G75*
G02*
X18870000Y-6040000I-20000J0D01*
G01*
X18870000Y-6040000D02*
G75*
G02*
X18910000Y-6040000I20000J0D01*
G01*
X18910000Y-6330000D02*
G75*
G02*
X18870000Y-6330000I-20000J0D01*
G01*
X18870000Y-6330000D02*
G75*
G02*
X18910000Y-6330000I20000J0D01*
G01*
X18910000Y-9830000D02*
G75*
G02*
X18870000Y-9830000I-20000J0D01*
G01*
X18870000Y-9830000D02*
G75*
G02*
X18910000Y-9830000I20000J0D01*
G01*
X18910000Y-10150000D02*
G75*
G02*
X18870000Y-10150000I-20000J0D01*
G01*
X18870000Y-10150000D02*
G75*
G02*
X18910000Y-10150000I20000J0D01*
G01*
X19250000Y-6040000D02*
G75*
G02*
X19210000Y-6040000I-20000J0D01*
G01*
X19210000Y-6040000D02*
G75*
G02*
X19250000Y-6040000I20000J0D01*
G01*
X19250000Y-6330000D02*
G75*
G02*
X19210000Y-6330000I-20000J0D01*
G01*
X19210000Y-6330000D02*
G75*
G02*
X19250000Y-6330000I20000J0D01*
G01*
X19250000Y-9830000D02*
G75*
G02*
X19210000Y-9830000I-20000J0D01*
G01*
X19210000Y-9830000D02*
G75*
G02*
X19250000Y-9830000I20000J0D01*
G01*
X19250000Y-10150000D02*
G75*
G02*
X19210000Y-10150000I-20000J0D01*
G01*
X19210000Y-10150000D02*
G75*
G02*
X19250000Y-10150000I20000J0D01*
G01*
X22030000Y-6180000D02*
G75*
G02*
X21990000Y-6180000I-20000J0D01*
G01*
X21990000Y-6180000D02*
G75*
G02*
X22030000Y-6180000I20000J0D01*
G01*
X22030000Y-6490000D02*
G75*
G02*
X21990000Y-6490000I-20000J0D01*
G01*
X21990000Y-6490000D02*
G75*
G02*
X22030000Y-6490000I20000J0D01*
G01*
X22030000Y-9990000D02*
G75*
G02*
X21990000Y-9990000I-20000J0D01*
G01*
X21990000Y-9990000D02*
G75*
G02*
X22030000Y-9990000I20000J0D01*
G01*
X22040000Y-10310000D02*
G75*
G02*
X22000000Y-10310000I-20000J0D01*
G01*
X22000000Y-10310000D02*
G75*
G02*
X22040000Y-10310000I20000J0D01*
G01*
X22370000Y-6180000D02*
G75*
G02*
X22330000Y-6180000I-20000J0D01*
G01*
X22330000Y-6180000D02*
G75*
G02*
X22370000Y-6180000I20000J0D01*
G01*
X22370000Y-6490000D02*
G75*
G02*
X22330000Y-6490000I-20000J0D01*
G01*
X22330000Y-6490000D02*
G75*
G02*
X22370000Y-6490000I20000J0D01*
G01*
X22370000Y-9990000D02*
G75*
G02*
X22330000Y-9990000I-20000J0D01*
G01*
X22330000Y-9990000D02*
G75*
G02*
X22370000Y-9990000I20000J0D01*
G01*
X22380000Y-10310000D02*
G75*
G02*
X22340000Y-10310000I-20000J0D01*
G01*
X22340000Y-10310000D02*
G75*
G02*
X22380000Y-10310000I20000J0D01*
G01*
X8797500Y-5311860D02*
X8797500Y-5393140D01*
X8756860Y-5352500D02*
X8838140Y-5352500D01*
X8797500Y-5646860D02*
X8797500Y-5728140D01*
X8756860Y-5687500D02*
X8838140Y-5687500D01*
X9218000Y-4082360D02*
X9218000Y-4163640D01*
X9177360Y-4123000D02*
X9258640Y-4123000D01*
X9218000Y-4336360D02*
X9218000Y-4417640D01*
X9177360Y-4377000D02*
X9258640Y-4377000D01*
X9218000Y-4590360D02*
X9218000Y-4671640D01*
X9177360Y-4631000D02*
X9258640Y-4631000D01*
X9218000Y-4844360D02*
X9218000Y-4925640D01*
X9177360Y-4885000D02*
X9258640Y-4885000D01*
X9218000Y-5098360D02*
X9218000Y-5179640D01*
X9177360Y-5139000D02*
X9258640Y-5139000D01*
X9218000Y-5352360D02*
X9218000Y-5433640D01*
X9177360Y-5393000D02*
X9258640Y-5393000D01*
X9218000Y-5606360D02*
X9218000Y-5687640D01*
X9177360Y-5647000D02*
X9258640Y-5647000D01*
X9218000Y-5860360D02*
X9218000Y-5941640D01*
X9177360Y-5901000D02*
X9258640Y-5901000D01*
X9218000Y-6114360D02*
X9218000Y-6195640D01*
X9177360Y-6155000D02*
X9258640Y-6155000D01*
X9218000Y-6368360D02*
X9218000Y-6449640D01*
X9177360Y-6409000D02*
X9258640Y-6409000D01*
X9218000Y-6622360D02*
X9218000Y-6703640D01*
X9177360Y-6663000D02*
X9258640Y-6663000D01*
X9218000Y-6876360D02*
X9218000Y-6957640D01*
X9177360Y-6917000D02*
X9258640Y-6917000D01*
X9347882Y-4201935D02*
X9347882Y-4283215D01*
X9307242Y-4242575D02*
X9388522Y-4242575D01*
X9347882Y-4455935D02*
X9347882Y-4537215D01*
X9307242Y-4496575D02*
X9388522Y-4496575D01*
X9347882Y-4709935D02*
X9347882Y-4791215D01*
X9307242Y-4750575D02*
X9388522Y-4750575D01*
X9347882Y-4963935D02*
X9347882Y-5045215D01*
X9307242Y-5004575D02*
X9388522Y-5004575D01*
X9347882Y-5217935D02*
X9347882Y-5299215D01*
X9307242Y-5258575D02*
X9388522Y-5258575D01*
X9347882Y-5471935D02*
X9347882Y-5553215D01*
X9307242Y-5512575D02*
X9388522Y-5512575D01*
X9347882Y-5725934D02*
X9347882Y-5807214D01*
X9307242Y-5766574D02*
X9388522Y-5766574D01*
X9347882Y-5979934D02*
X9347882Y-6061214D01*
X9307242Y-6020574D02*
X9388522Y-6020574D01*
X9347882Y-6233934D02*
X9347882Y-6315214D01*
X9307242Y-6274574D02*
X9388522Y-6274574D01*
X9347882Y-6487934D02*
X9347882Y-6569214D01*
X9307242Y-6528574D02*
X9388522Y-6528574D01*
X9347882Y-6741934D02*
X9347882Y-6823214D01*
X9307242Y-6782574D02*
X9388522Y-6782574D01*
X9347882Y-6995934D02*
X9347882Y-7077214D01*
X9307242Y-7036574D02*
X9388522Y-7036574D01*
X9532500Y-7336860D02*
X9532500Y-7418140D01*
X9491860Y-7377500D02*
X9573140Y-7377500D01*
X9786500Y-7336860D02*
X9786500Y-7418140D01*
X9745860Y-7377500D02*
X9827140Y-7377500D01*
X10040500Y-7336860D02*
X10040500Y-7418140D01*
X9999860Y-7377500D02*
X10081140Y-7377500D01*
X10294500Y-7336860D02*
X10294500Y-7418140D01*
X10253860Y-7377500D02*
X10335140Y-7377500D01*
X10548500Y-7336860D02*
X10548500Y-7418140D01*
X10507860Y-7377500D02*
X10589140Y-7377500D01*
X10742000Y-4082360D02*
X10742000Y-4163640D01*
X10701360Y-4123000D02*
X10782640Y-4123000D01*
X10742000Y-4336360D02*
X10742000Y-4417640D01*
X10701360Y-4377000D02*
X10782640Y-4377000D01*
X10742000Y-4590360D02*
X10742000Y-4671640D01*
X10701360Y-4631000D02*
X10782640Y-4631000D01*
X10742000Y-4844360D02*
X10742000Y-4925640D01*
X10701360Y-4885000D02*
X10782640Y-4885000D01*
X10742000Y-5098360D02*
X10742000Y-5179640D01*
X10701360Y-5139000D02*
X10782640Y-5139000D01*
X10742000Y-5352360D02*
X10742000Y-5433640D01*
X10701360Y-5393000D02*
X10782640Y-5393000D01*
X10742000Y-5606360D02*
X10742000Y-5687640D01*
X10701360Y-5647000D02*
X10782640Y-5647000D01*
X10742000Y-5860360D02*
X10742000Y-5941640D01*
X10701360Y-5901000D02*
X10782640Y-5901000D01*
X10742000Y-6114360D02*
X10742000Y-6195640D01*
X10701360Y-6155000D02*
X10782640Y-6155000D01*
X10742000Y-6368360D02*
X10742000Y-6449640D01*
X10701360Y-6409000D02*
X10782640Y-6409000D01*
X10742000Y-6622360D02*
X10742000Y-6703640D01*
X10701360Y-6663000D02*
X10782640Y-6663000D01*
X10742000Y-6876360D02*
X10742000Y-6957640D01*
X10701360Y-6917000D02*
X10782640Y-6917000D01*
X10871882Y-4201935D02*
X10871882Y-4283215D01*
X10831242Y-4242575D02*
X10912522Y-4242575D01*
X10871882Y-4455935D02*
X10871882Y-4537215D01*
X10831242Y-4496575D02*
X10912522Y-4496575D01*
X10871882Y-4709935D02*
X10871882Y-4791215D01*
X10831242Y-4750575D02*
X10912522Y-4750575D01*
X10871882Y-4963935D02*
X10871882Y-5045215D01*
X10831242Y-5004575D02*
X10912522Y-5004575D01*
X10871882Y-5217935D02*
X10871882Y-5299215D01*
X10831242Y-5258575D02*
X10912522Y-5258575D01*
X10871882Y-5471935D02*
X10871882Y-5553215D01*
X10831242Y-5512575D02*
X10912522Y-5512575D01*
X10871882Y-5725934D02*
X10871882Y-5807214D01*
X10831242Y-5766574D02*
X10912522Y-5766574D01*
X10871882Y-5979934D02*
X10871882Y-6061214D01*
X10831242Y-6020574D02*
X10912522Y-6020574D01*
X10871882Y-6233934D02*
X10871882Y-6315214D01*
X10831242Y-6274574D02*
X10912522Y-6274574D01*
X10871882Y-6487934D02*
X10871882Y-6569214D01*
X10831242Y-6528574D02*
X10912522Y-6528574D01*
X10871882Y-6741934D02*
X10871882Y-6823214D01*
X10831242Y-6782574D02*
X10912522Y-6782574D01*
X10871882Y-6995934D02*
X10871882Y-7077214D01*
X10831242Y-7036574D02*
X10912522Y-7036574D01*
D12*
X8545962Y-6490962D02*
X8545962Y-6399038D01*
X8454038Y-6399038D01*
X8454038Y-6490962D01*
X8545962Y-6490962D01*
X8545962Y-7140962D02*
X8545962Y-7049038D01*
X8454038Y-7049038D01*
X8454038Y-7140962D01*
X8545962Y-7140962D01*
D13*
X8600000Y-8620000D02*
X8720000Y-8500000D01*
X8600000Y-8380000D01*
X8480000Y-8500000D01*
X8600000Y-8620000D01*
X10800000Y-8620000D02*
X10920000Y-8500000D01*
X10800000Y-8380000D01*
X10680000Y-8500000D01*
X10800000Y-8620000D01*
D14*
X10265000Y-11245000D02*
X10735000Y-11715000D01*
X10735000Y-11245000D02*
X10265000Y-11715000D01*
X10735000Y-11480000D02*
G75*
G02*
X10265000Y-11480000I-235000J0D01*
G01*
X10265000Y-11480000D02*
G75*
G02*
X10735000Y-11480000I235000J0D01*
G01*
X12725000Y-5725000D02*
X13195000Y-6195000D01*
X13195000Y-5725000D02*
X12725000Y-6195000D01*
X13195000Y-5960000D02*
G75*
G02*
X12725000Y-5960000I-235000J0D01*
G01*
X12725000Y-5960000D02*
G75*
G02*
X13195000Y-5960000I235000J0D01*
G01*
X12725000Y-9525000D02*
X13195000Y-9995000D01*
X13195000Y-9525000D02*
X12725000Y-9995000D01*
X13195000Y-9760000D02*
G75*
G02*
X12725000Y-9760000I-235000J0D01*
G01*
X12725000Y-9760000D02*
G75*
G02*
X13195000Y-9760000I235000J0D01*
G01*
X20345000Y-5945000D02*
X20815000Y-6415000D01*
X20815000Y-5945000D02*
X20345000Y-6415000D01*
X20815000Y-6180000D02*
G75*
G02*
X20345000Y-6180000I-235000J0D01*
G01*
X20345000Y-6180000D02*
G75*
G02*
X20815000Y-6180000I235000J0D01*
G01*
X20345000Y-9765000D02*
X20815000Y-10235000D01*
X20815000Y-9765000D02*
X20345000Y-10235000D01*
X20815000Y-10000000D02*
G75*
G02*
X20345000Y-10000000I-235000J0D01*
G01*
X20345000Y-10000000D02*
G75*
G02*
X20815000Y-10000000I235000J0D01*
G01*
D10*
X8544530Y-14662881D02*
X8544530Y-14462881D01*
X8544530Y-14462881D02*
X8592149Y-14462881D01*
X8592149Y-14462881D02*
X8620720Y-14472405D01*
X8620720Y-14472405D02*
X8639768Y-14491453D01*
X8639768Y-14491453D02*
X8649292Y-14510500D01*
X8649292Y-14510500D02*
X8658815Y-14548595D01*
X8658815Y-14548595D02*
X8658815Y-14577167D01*
X8658815Y-14577167D02*
X8649292Y-14615262D01*
X8649292Y-14615262D02*
X8639768Y-14634310D01*
X8639768Y-14634310D02*
X8620720Y-14653357D01*
X8620720Y-14653357D02*
X8592149Y-14662881D01*
X8592149Y-14662881D02*
X8544530Y-14662881D01*
X8744530Y-14662881D02*
X8744530Y-14529548D01*
X8744530Y-14567643D02*
X8754053Y-14548595D01*
X8754053Y-14548595D02*
X8763577Y-14539072D01*
X8763577Y-14539072D02*
X8782625Y-14529548D01*
X8782625Y-14529548D02*
X8801673Y-14529548D01*
X8868339Y-14662881D02*
X8868339Y-14529548D01*
X8868339Y-14462881D02*
X8858815Y-14472405D01*
X8858815Y-14472405D02*
X8868339Y-14481929D01*
X8868339Y-14481929D02*
X8877863Y-14472405D01*
X8877863Y-14472405D02*
X8868339Y-14462881D01*
X8868339Y-14462881D02*
X8868339Y-14481929D01*
X8992149Y-14662881D02*
X8973101Y-14653357D01*
X8973101Y-14653357D02*
X8963577Y-14634310D01*
X8963577Y-14634310D02*
X8963577Y-14462881D01*
X9096911Y-14662881D02*
X9077863Y-14653357D01*
X9077863Y-14653357D02*
X9068339Y-14634310D01*
X9068339Y-14634310D02*
X9068339Y-14462881D01*
X9325482Y-14662881D02*
X9325482Y-14462881D01*
X9325482Y-14462881D02*
X9392149Y-14605738D01*
X9392149Y-14605738D02*
X9458815Y-14462881D01*
X9458815Y-14462881D02*
X9458815Y-14662881D01*
X9639768Y-14662881D02*
X9639768Y-14558119D01*
X9639768Y-14558119D02*
X9630244Y-14539072D01*
X9630244Y-14539072D02*
X9611196Y-14529548D01*
X9611196Y-14529548D02*
X9573101Y-14529548D01*
X9573101Y-14529548D02*
X9554053Y-14539072D01*
X9639768Y-14653357D02*
X9620720Y-14662881D01*
X9620720Y-14662881D02*
X9573101Y-14662881D01*
X9573101Y-14662881D02*
X9554053Y-14653357D01*
X9554053Y-14653357D02*
X9544530Y-14634310D01*
X9544530Y-14634310D02*
X9544530Y-14615262D01*
X9544530Y-14615262D02*
X9554053Y-14596214D01*
X9554053Y-14596214D02*
X9573101Y-14586691D01*
X9573101Y-14586691D02*
X9620720Y-14586691D01*
X9620720Y-14586691D02*
X9639768Y-14577167D01*
X9735006Y-14529548D02*
X9735006Y-14729548D01*
X9735006Y-14539072D02*
X9754053Y-14529548D01*
X9754053Y-14529548D02*
X9792149Y-14529548D01*
X9792149Y-14529548D02*
X9811196Y-14539072D01*
X9811196Y-14539072D02*
X9820720Y-14548595D01*
X9820720Y-14548595D02*
X9830244Y-14567643D01*
X9830244Y-14567643D02*
X9830244Y-14624786D01*
X9830244Y-14624786D02*
X9820720Y-14643833D01*
X9820720Y-14643833D02*
X9811196Y-14653357D01*
X9811196Y-14653357D02*
X9792149Y-14662881D01*
X9792149Y-14662881D02*
X9754053Y-14662881D01*
X9754053Y-14662881D02*
X9735006Y-14653357D01*
X9915958Y-14643833D02*
X9925482Y-14653357D01*
X9925482Y-14653357D02*
X9915958Y-14662881D01*
X9915958Y-14662881D02*
X9906434Y-14653357D01*
X9906434Y-14653357D02*
X9915958Y-14643833D01*
X9915958Y-14643833D02*
X9915958Y-14662881D01*
X9915958Y-14539072D02*
X9925482Y-14548595D01*
X9925482Y-14548595D02*
X9915958Y-14558119D01*
X9915958Y-14558119D02*
X9906434Y-14548595D01*
X9906434Y-14548595D02*
X9915958Y-14539072D01*
X9915958Y-14539072D02*
X9915958Y-14558119D01*
D11*
X8253753Y-14976397D02*
X8283753Y-15006397D01*
X8283753Y-14976397D02*
X8253753Y-15006397D01*
D10*
X8582625Y-14882881D02*
X8601673Y-14882881D01*
X8601673Y-14882881D02*
X8620720Y-14892405D01*
X8620720Y-14892405D02*
X8630244Y-14901929D01*
X8630244Y-14901929D02*
X8639768Y-14920976D01*
X8639768Y-14920976D02*
X8649292Y-14959072D01*
X8649292Y-14959072D02*
X8649292Y-15006691D01*
X8649292Y-15006691D02*
X8639768Y-15044786D01*
X8639768Y-15044786D02*
X8630244Y-15063833D01*
X8630244Y-15063833D02*
X8620720Y-15073357D01*
X8620720Y-15073357D02*
X8601673Y-15082881D01*
X8601673Y-15082881D02*
X8582625Y-15082881D01*
X8582625Y-15082881D02*
X8563577Y-15073357D01*
X8563577Y-15073357D02*
X8554053Y-15063833D01*
X8554053Y-15063833D02*
X8544530Y-15044786D01*
X8544530Y-15044786D02*
X8535006Y-15006691D01*
X8535006Y-15006691D02*
X8535006Y-14959072D01*
X8535006Y-14959072D02*
X8544530Y-14920976D01*
X8544530Y-14920976D02*
X8554053Y-14901929D01*
X8554053Y-14901929D02*
X8563577Y-14892405D01*
X8563577Y-14892405D02*
X8582625Y-14882881D01*
X8735006Y-15063833D02*
X8744530Y-15073357D01*
X8744530Y-15073357D02*
X8735006Y-15082881D01*
X8735006Y-15082881D02*
X8725482Y-15073357D01*
X8725482Y-15073357D02*
X8735006Y-15063833D01*
X8735006Y-15063833D02*
X8735006Y-15082881D01*
X8811196Y-14882881D02*
X8935006Y-14882881D01*
X8935006Y-14882881D02*
X8868339Y-14959072D01*
X8868339Y-14959072D02*
X8896911Y-14959072D01*
X8896911Y-14959072D02*
X8915958Y-14968595D01*
X8915958Y-14968595D02*
X8925482Y-14978119D01*
X8925482Y-14978119D02*
X8935006Y-14997167D01*
X8935006Y-14997167D02*
X8935006Y-15044786D01*
X8935006Y-15044786D02*
X8925482Y-15063833D01*
X8925482Y-15063833D02*
X8915958Y-15073357D01*
X8915958Y-15073357D02*
X8896911Y-15082881D01*
X8896911Y-15082881D02*
X8839768Y-15082881D01*
X8839768Y-15082881D02*
X8820720Y-15073357D01*
X8820720Y-15073357D02*
X8811196Y-15063833D01*
X9058815Y-14882881D02*
X9077863Y-14882881D01*
X9077863Y-14882881D02*
X9096911Y-14892405D01*
X9096911Y-14892405D02*
X9106434Y-14901929D01*
X9106434Y-14901929D02*
X9115958Y-14920976D01*
X9115958Y-14920976D02*
X9125482Y-14959072D01*
X9125482Y-14959072D02*
X9125482Y-15006691D01*
X9125482Y-15006691D02*
X9115958Y-15044786D01*
X9115958Y-15044786D02*
X9106434Y-15063833D01*
X9106434Y-15063833D02*
X9096911Y-15073357D01*
X9096911Y-15073357D02*
X9077863Y-15082881D01*
X9077863Y-15082881D02*
X9058815Y-15082881D01*
X9058815Y-15082881D02*
X9039768Y-15073357D01*
X9039768Y-15073357D02*
X9030244Y-15063833D01*
X9030244Y-15063833D02*
X9020720Y-15044786D01*
X9020720Y-15044786D02*
X9011196Y-15006691D01*
X9011196Y-15006691D02*
X9011196Y-14959072D01*
X9011196Y-14959072D02*
X9020720Y-14920976D01*
X9020720Y-14920976D02*
X9030244Y-14901929D01*
X9030244Y-14901929D02*
X9039768Y-14892405D01*
X9039768Y-14892405D02*
X9058815Y-14882881D01*
X9249292Y-14882881D02*
X9268339Y-14882881D01*
X9268339Y-14882881D02*
X9287387Y-14892405D01*
X9287387Y-14892405D02*
X9296911Y-14901929D01*
X9296911Y-14901929D02*
X9306434Y-14920976D01*
X9306434Y-14920976D02*
X9315958Y-14959072D01*
X9315958Y-14959072D02*
X9315958Y-15006691D01*
X9315958Y-15006691D02*
X9306434Y-15044786D01*
X9306434Y-15044786D02*
X9296911Y-15063833D01*
X9296911Y-15063833D02*
X9287387Y-15073357D01*
X9287387Y-15073357D02*
X9268339Y-15082881D01*
X9268339Y-15082881D02*
X9249292Y-15082881D01*
X9249292Y-15082881D02*
X9230244Y-15073357D01*
X9230244Y-15073357D02*
X9220720Y-15063833D01*
X9220720Y-15063833D02*
X9211196Y-15044786D01*
X9211196Y-15044786D02*
X9201673Y-15006691D01*
X9201673Y-15006691D02*
X9201673Y-14959072D01*
X9201673Y-14959072D02*
X9211196Y-14920976D01*
X9211196Y-14920976D02*
X9220720Y-14901929D01*
X9220720Y-14901929D02*
X9230244Y-14892405D01*
X9230244Y-14892405D02*
X9249292Y-14882881D01*
X9401673Y-15082881D02*
X9401673Y-14949548D01*
X9401673Y-14968595D02*
X9411196Y-14959072D01*
X9411196Y-14959072D02*
X9430244Y-14949548D01*
X9430244Y-14949548D02*
X9458815Y-14949548D01*
X9458815Y-14949548D02*
X9477863Y-14959072D01*
X9477863Y-14959072D02*
X9487387Y-14978119D01*
X9487387Y-14978119D02*
X9487387Y-15082881D01*
X9487387Y-14978119D02*
X9496911Y-14959072D01*
X9496911Y-14959072D02*
X9515958Y-14949548D01*
X9515958Y-14949548D02*
X9544530Y-14949548D01*
X9544530Y-14949548D02*
X9563577Y-14959072D01*
X9563577Y-14959072D02*
X9573101Y-14978119D01*
X9573101Y-14978119D02*
X9573101Y-15082881D01*
X9668339Y-15082881D02*
X9668339Y-14949548D01*
X9668339Y-14968595D02*
X9677863Y-14959072D01*
X9677863Y-14959072D02*
X9696911Y-14949548D01*
X9696911Y-14949548D02*
X9725482Y-14949548D01*
X9725482Y-14949548D02*
X9744530Y-14959072D01*
X9744530Y-14959072D02*
X9754054Y-14978119D01*
X9754054Y-14978119D02*
X9754054Y-15082881D01*
X9754054Y-14978119D02*
X9763577Y-14959072D01*
X9763577Y-14959072D02*
X9782625Y-14949548D01*
X9782625Y-14949548D02*
X9811196Y-14949548D01*
X9811196Y-14949548D02*
X9830244Y-14959072D01*
X9830244Y-14959072D02*
X9839768Y-14978119D01*
X9839768Y-14978119D02*
X9839768Y-15082881D01*
X10230244Y-14873357D02*
X10058816Y-15130500D01*
X10487387Y-14882881D02*
X10506435Y-14882881D01*
X10506435Y-14882881D02*
X10525482Y-14892405D01*
X10525482Y-14892405D02*
X10535006Y-14901929D01*
X10535006Y-14901929D02*
X10544530Y-14920976D01*
X10544530Y-14920976D02*
X10554054Y-14959072D01*
X10554054Y-14959072D02*
X10554054Y-15006691D01*
X10554054Y-15006691D02*
X10544530Y-15044786D01*
X10544530Y-15044786D02*
X10535006Y-15063833D01*
X10535006Y-15063833D02*
X10525482Y-15073357D01*
X10525482Y-15073357D02*
X10506435Y-15082881D01*
X10506435Y-15082881D02*
X10487387Y-15082881D01*
X10487387Y-15082881D02*
X10468339Y-15073357D01*
X10468339Y-15073357D02*
X10458816Y-15063833D01*
X10458816Y-15063833D02*
X10449292Y-15044786D01*
X10449292Y-15044786D02*
X10439768Y-15006691D01*
X10439768Y-15006691D02*
X10439768Y-14959072D01*
X10439768Y-14959072D02*
X10449292Y-14920976D01*
X10449292Y-14920976D02*
X10458816Y-14901929D01*
X10458816Y-14901929D02*
X10468339Y-14892405D01*
X10468339Y-14892405D02*
X10487387Y-14882881D01*
X10639768Y-15063833D02*
X10649292Y-15073357D01*
X10649292Y-15073357D02*
X10639768Y-15082881D01*
X10639768Y-15082881D02*
X10630244Y-15073357D01*
X10630244Y-15073357D02*
X10639768Y-15063833D01*
X10639768Y-15063833D02*
X10639768Y-15082881D01*
X10773101Y-14882881D02*
X10792149Y-14882881D01*
X10792149Y-14882881D02*
X10811197Y-14892405D01*
X10811197Y-14892405D02*
X10820720Y-14901929D01*
X10820720Y-14901929D02*
X10830244Y-14920976D01*
X10830244Y-14920976D02*
X10839768Y-14959072D01*
X10839768Y-14959072D02*
X10839768Y-15006691D01*
X10839768Y-15006691D02*
X10830244Y-15044786D01*
X10830244Y-15044786D02*
X10820720Y-15063833D01*
X10820720Y-15063833D02*
X10811197Y-15073357D01*
X10811197Y-15073357D02*
X10792149Y-15082881D01*
X10792149Y-15082881D02*
X10773101Y-15082881D01*
X10773101Y-15082881D02*
X10754054Y-15073357D01*
X10754054Y-15073357D02*
X10744530Y-15063833D01*
X10744530Y-15063833D02*
X10735006Y-15044786D01*
X10735006Y-15044786D02*
X10725482Y-15006691D01*
X10725482Y-15006691D02*
X10725482Y-14959072D01*
X10725482Y-14959072D02*
X10735006Y-14920976D01*
X10735006Y-14920976D02*
X10744530Y-14901929D01*
X10744530Y-14901929D02*
X10754054Y-14892405D01*
X10754054Y-14892405D02*
X10773101Y-14882881D01*
X11030244Y-15082881D02*
X10915958Y-15082881D01*
X10973101Y-15082881D02*
X10973101Y-14882881D01*
X10973101Y-14882881D02*
X10954054Y-14911453D01*
X10954054Y-14911453D02*
X10935006Y-14930500D01*
X10935006Y-14930500D02*
X10915958Y-14940024D01*
X11220720Y-15082881D02*
X11106435Y-15082881D01*
X11163577Y-15082881D02*
X11163577Y-14882881D01*
X11163577Y-14882881D02*
X11144530Y-14911453D01*
X11144530Y-14911453D02*
X11125482Y-14930500D01*
X11125482Y-14930500D02*
X11106435Y-14940024D01*
X11335006Y-14968595D02*
X11315958Y-14959072D01*
X11315958Y-14959072D02*
X11306435Y-14949548D01*
X11306435Y-14949548D02*
X11296911Y-14930500D01*
X11296911Y-14930500D02*
X11296911Y-14920976D01*
X11296911Y-14920976D02*
X11306435Y-14901929D01*
X11306435Y-14901929D02*
X11315958Y-14892405D01*
X11315958Y-14892405D02*
X11335006Y-14882881D01*
X11335006Y-14882881D02*
X11373101Y-14882881D01*
X11373101Y-14882881D02*
X11392149Y-14892405D01*
X11392149Y-14892405D02*
X11401673Y-14901929D01*
X11401673Y-14901929D02*
X11411196Y-14920976D01*
X11411196Y-14920976D02*
X11411196Y-14930500D01*
X11411196Y-14930500D02*
X11401673Y-14949548D01*
X11401673Y-14949548D02*
X11392149Y-14959072D01*
X11392149Y-14959072D02*
X11373101Y-14968595D01*
X11373101Y-14968595D02*
X11335006Y-14968595D01*
X11335006Y-14968595D02*
X11315958Y-14978119D01*
X11315958Y-14978119D02*
X11306435Y-14987643D01*
X11306435Y-14987643D02*
X11296911Y-15006691D01*
X11296911Y-15006691D02*
X11296911Y-15044786D01*
X11296911Y-15044786D02*
X11306435Y-15063833D01*
X11306435Y-15063833D02*
X11315958Y-15073357D01*
X11315958Y-15073357D02*
X11335006Y-15082881D01*
X11335006Y-15082881D02*
X11373101Y-15082881D01*
X11373101Y-15082881D02*
X11392149Y-15073357D01*
X11392149Y-15073357D02*
X11401673Y-15063833D01*
X11401673Y-15063833D02*
X11411196Y-15044786D01*
X11411196Y-15044786D02*
X11411196Y-15006691D01*
X11411196Y-15006691D02*
X11401673Y-14987643D01*
X11401673Y-14987643D02*
X11392149Y-14978119D01*
X11392149Y-14978119D02*
X11373101Y-14968595D01*
X11487387Y-14882881D02*
X11487387Y-14920976D01*
X11563577Y-14882881D02*
X11563577Y-14920976D01*
X11858816Y-15159072D02*
X11849292Y-15149548D01*
X11849292Y-15149548D02*
X11830244Y-15120976D01*
X11830244Y-15120976D02*
X11820720Y-15101929D01*
X11820720Y-15101929D02*
X11811197Y-15073357D01*
X11811197Y-15073357D02*
X11801673Y-15025738D01*
X11801673Y-15025738D02*
X11801673Y-14987643D01*
X11801673Y-14987643D02*
X11811197Y-14940024D01*
X11811197Y-14940024D02*
X11820720Y-14911453D01*
X11820720Y-14911453D02*
X11830244Y-14892405D01*
X11830244Y-14892405D02*
X11849292Y-14863833D01*
X11849292Y-14863833D02*
X11858816Y-14854310D01*
X12039768Y-15082881D02*
X11925482Y-15082881D01*
X11982625Y-15082881D02*
X11982625Y-14882881D01*
X11982625Y-14882881D02*
X11963577Y-14911453D01*
X11963577Y-14911453D02*
X11944530Y-14930500D01*
X11944530Y-14930500D02*
X11925482Y-14940024D01*
X12211197Y-14949548D02*
X12211197Y-15082881D01*
X12163577Y-14873357D02*
X12115958Y-15016214D01*
X12115958Y-15016214D02*
X12239768Y-15016214D01*
X12344530Y-14968595D02*
X12325482Y-14959072D01*
X12325482Y-14959072D02*
X12315958Y-14949548D01*
X12315958Y-14949548D02*
X12306435Y-14930500D01*
X12306435Y-14930500D02*
X12306435Y-14920976D01*
X12306435Y-14920976D02*
X12315958Y-14901929D01*
X12315958Y-14901929D02*
X12325482Y-14892405D01*
X12325482Y-14892405D02*
X12344530Y-14882881D01*
X12344530Y-14882881D02*
X12382625Y-14882881D01*
X12382625Y-14882881D02*
X12401673Y-14892405D01*
X12401673Y-14892405D02*
X12411197Y-14901929D01*
X12411197Y-14901929D02*
X12420720Y-14920976D01*
X12420720Y-14920976D02*
X12420720Y-14930500D01*
X12420720Y-14930500D02*
X12411197Y-14949548D01*
X12411197Y-14949548D02*
X12401673Y-14959072D01*
X12401673Y-14959072D02*
X12382625Y-14968595D01*
X12382625Y-14968595D02*
X12344530Y-14968595D01*
X12344530Y-14968595D02*
X12325482Y-14978119D01*
X12325482Y-14978119D02*
X12315958Y-14987643D01*
X12315958Y-14987643D02*
X12306435Y-15006691D01*
X12306435Y-15006691D02*
X12306435Y-15044786D01*
X12306435Y-15044786D02*
X12315958Y-15063833D01*
X12315958Y-15063833D02*
X12325482Y-15073357D01*
X12325482Y-15073357D02*
X12344530Y-15082881D01*
X12344530Y-15082881D02*
X12382625Y-15082881D01*
X12382625Y-15082881D02*
X12401673Y-15073357D01*
X12401673Y-15073357D02*
X12411197Y-15063833D01*
X12411197Y-15063833D02*
X12420720Y-15044786D01*
X12420720Y-15044786D02*
X12420720Y-15006691D01*
X12420720Y-15006691D02*
X12411197Y-14987643D01*
X12411197Y-14987643D02*
X12401673Y-14978119D01*
X12401673Y-14978119D02*
X12382625Y-14968595D01*
X12658816Y-15082881D02*
X12658816Y-14882881D01*
X12744530Y-15082881D02*
X12744530Y-14978119D01*
X12744530Y-14978119D02*
X12735006Y-14959072D01*
X12735006Y-14959072D02*
X12715959Y-14949548D01*
X12715959Y-14949548D02*
X12687387Y-14949548D01*
X12687387Y-14949548D02*
X12668339Y-14959072D01*
X12668339Y-14959072D02*
X12658816Y-14968595D01*
X12868339Y-15082881D02*
X12849292Y-15073357D01*
X12849292Y-15073357D02*
X12839768Y-15063833D01*
X12839768Y-15063833D02*
X12830244Y-15044786D01*
X12830244Y-15044786D02*
X12830244Y-14987643D01*
X12830244Y-14987643D02*
X12839768Y-14968595D01*
X12839768Y-14968595D02*
X12849292Y-14959072D01*
X12849292Y-14959072D02*
X12868339Y-14949548D01*
X12868339Y-14949548D02*
X12896911Y-14949548D01*
X12896911Y-14949548D02*
X12915959Y-14959072D01*
X12915959Y-14959072D02*
X12925482Y-14968595D01*
X12925482Y-14968595D02*
X12935006Y-14987643D01*
X12935006Y-14987643D02*
X12935006Y-15044786D01*
X12935006Y-15044786D02*
X12925482Y-15063833D01*
X12925482Y-15063833D02*
X12915959Y-15073357D01*
X12915959Y-15073357D02*
X12896911Y-15082881D01*
X12896911Y-15082881D02*
X12868339Y-15082881D01*
X13049292Y-15082881D02*
X13030244Y-15073357D01*
X13030244Y-15073357D02*
X13020720Y-15054310D01*
X13020720Y-15054310D02*
X13020720Y-14882881D01*
X13201673Y-15073357D02*
X13182625Y-15082881D01*
X13182625Y-15082881D02*
X13144530Y-15082881D01*
X13144530Y-15082881D02*
X13125482Y-15073357D01*
X13125482Y-15073357D02*
X13115959Y-15054310D01*
X13115959Y-15054310D02*
X13115959Y-14978119D01*
X13115959Y-14978119D02*
X13125482Y-14959072D01*
X13125482Y-14959072D02*
X13144530Y-14949548D01*
X13144530Y-14949548D02*
X13182625Y-14949548D01*
X13182625Y-14949548D02*
X13201673Y-14959072D01*
X13201673Y-14959072D02*
X13211197Y-14978119D01*
X13211197Y-14978119D02*
X13211197Y-14997167D01*
X13211197Y-14997167D02*
X13115959Y-15016214D01*
X13287387Y-15073357D02*
X13306435Y-15082881D01*
X13306435Y-15082881D02*
X13344530Y-15082881D01*
X13344530Y-15082881D02*
X13363578Y-15073357D01*
X13363578Y-15073357D02*
X13373101Y-15054310D01*
X13373101Y-15054310D02*
X13373101Y-15044786D01*
X13373101Y-15044786D02*
X13363578Y-15025738D01*
X13363578Y-15025738D02*
X13344530Y-15016214D01*
X13344530Y-15016214D02*
X13315959Y-15016214D01*
X13315959Y-15016214D02*
X13296911Y-15006691D01*
X13296911Y-15006691D02*
X13287387Y-14987643D01*
X13287387Y-14987643D02*
X13287387Y-14978119D01*
X13287387Y-14978119D02*
X13296911Y-14959072D01*
X13296911Y-14959072D02*
X13315959Y-14949548D01*
X13315959Y-14949548D02*
X13344530Y-14949548D01*
X13344530Y-14949548D02*
X13363578Y-14959072D01*
X13439768Y-15159072D02*
X13449292Y-15149548D01*
X13449292Y-15149548D02*
X13468340Y-15120976D01*
X13468340Y-15120976D02*
X13477863Y-15101929D01*
X13477863Y-15101929D02*
X13487387Y-15073357D01*
X13487387Y-15073357D02*
X13496911Y-15025738D01*
X13496911Y-15025738D02*
X13496911Y-14987643D01*
X13496911Y-14987643D02*
X13487387Y-14940024D01*
X13487387Y-14940024D02*
X13477863Y-14911453D01*
X13477863Y-14911453D02*
X13468340Y-14892405D01*
X13468340Y-14892405D02*
X13449292Y-14863833D01*
X13449292Y-14863833D02*
X13439768Y-14854310D01*
D11*
X8283753Y-15255397D02*
G75*
G02*
X8243753Y-15255397I-20000J0D01*
G01*
X8243753Y-15255397D02*
G75*
G02*
X8283753Y-15255397I20000J0D01*
G01*
D10*
X8582625Y-15146881D02*
X8601673Y-15146881D01*
X8601673Y-15146881D02*
X8620720Y-15156405D01*
X8620720Y-15156405D02*
X8630244Y-15165929D01*
X8630244Y-15165929D02*
X8639768Y-15184976D01*
X8639768Y-15184976D02*
X8649292Y-15223072D01*
X8649292Y-15223072D02*
X8649292Y-15270691D01*
X8649292Y-15270691D02*
X8639768Y-15308786D01*
X8639768Y-15308786D02*
X8630244Y-15327833D01*
X8630244Y-15327833D02*
X8620720Y-15337357D01*
X8620720Y-15337357D02*
X8601673Y-15346881D01*
X8601673Y-15346881D02*
X8582625Y-15346881D01*
X8582625Y-15346881D02*
X8563577Y-15337357D01*
X8563577Y-15337357D02*
X8554053Y-15327833D01*
X8554053Y-15327833D02*
X8544530Y-15308786D01*
X8544530Y-15308786D02*
X8535006Y-15270691D01*
X8535006Y-15270691D02*
X8535006Y-15223072D01*
X8535006Y-15223072D02*
X8544530Y-15184976D01*
X8544530Y-15184976D02*
X8554053Y-15165929D01*
X8554053Y-15165929D02*
X8563577Y-15156405D01*
X8563577Y-15156405D02*
X8582625Y-15146881D01*
X8735006Y-15327833D02*
X8744530Y-15337357D01*
X8744530Y-15337357D02*
X8735006Y-15346881D01*
X8735006Y-15346881D02*
X8725482Y-15337357D01*
X8725482Y-15337357D02*
X8735006Y-15327833D01*
X8735006Y-15327833D02*
X8735006Y-15346881D01*
X8915958Y-15213548D02*
X8915958Y-15346881D01*
X8868339Y-15137357D02*
X8820720Y-15280214D01*
X8820720Y-15280214D02*
X8944530Y-15280214D01*
X9058815Y-15146881D02*
X9077863Y-15146881D01*
X9077863Y-15146881D02*
X9096911Y-15156405D01*
X9096911Y-15156405D02*
X9106434Y-15165929D01*
X9106434Y-15165929D02*
X9115958Y-15184976D01*
X9115958Y-15184976D02*
X9125482Y-15223072D01*
X9125482Y-15223072D02*
X9125482Y-15270691D01*
X9125482Y-15270691D02*
X9115958Y-15308786D01*
X9115958Y-15308786D02*
X9106434Y-15327833D01*
X9106434Y-15327833D02*
X9096911Y-15337357D01*
X9096911Y-15337357D02*
X9077863Y-15346881D01*
X9077863Y-15346881D02*
X9058815Y-15346881D01*
X9058815Y-15346881D02*
X9039768Y-15337357D01*
X9039768Y-15337357D02*
X9030244Y-15327833D01*
X9030244Y-15327833D02*
X9020720Y-15308786D01*
X9020720Y-15308786D02*
X9011196Y-15270691D01*
X9011196Y-15270691D02*
X9011196Y-15223072D01*
X9011196Y-15223072D02*
X9020720Y-15184976D01*
X9020720Y-15184976D02*
X9030244Y-15165929D01*
X9030244Y-15165929D02*
X9039768Y-15156405D01*
X9039768Y-15156405D02*
X9058815Y-15146881D01*
X9249292Y-15146881D02*
X9268339Y-15146881D01*
X9268339Y-15146881D02*
X9287387Y-15156405D01*
X9287387Y-15156405D02*
X9296911Y-15165929D01*
X9296911Y-15165929D02*
X9306434Y-15184976D01*
X9306434Y-15184976D02*
X9315958Y-15223072D01*
X9315958Y-15223072D02*
X9315958Y-15270691D01*
X9315958Y-15270691D02*
X9306434Y-15308786D01*
X9306434Y-15308786D02*
X9296911Y-15327833D01*
X9296911Y-15327833D02*
X9287387Y-15337357D01*
X9287387Y-15337357D02*
X9268339Y-15346881D01*
X9268339Y-15346881D02*
X9249292Y-15346881D01*
X9249292Y-15346881D02*
X9230244Y-15337357D01*
X9230244Y-15337357D02*
X9220720Y-15327833D01*
X9220720Y-15327833D02*
X9211196Y-15308786D01*
X9211196Y-15308786D02*
X9201673Y-15270691D01*
X9201673Y-15270691D02*
X9201673Y-15223072D01*
X9201673Y-15223072D02*
X9211196Y-15184976D01*
X9211196Y-15184976D02*
X9220720Y-15165929D01*
X9220720Y-15165929D02*
X9230244Y-15156405D01*
X9230244Y-15156405D02*
X9249292Y-15146881D01*
X9401673Y-15346881D02*
X9401673Y-15213548D01*
X9401673Y-15232595D02*
X9411196Y-15223072D01*
X9411196Y-15223072D02*
X9430244Y-15213548D01*
X9430244Y-15213548D02*
X9458815Y-15213548D01*
X9458815Y-15213548D02*
X9477863Y-15223072D01*
X9477863Y-15223072D02*
X9487387Y-15242119D01*
X9487387Y-15242119D02*
X9487387Y-15346881D01*
X9487387Y-15242119D02*
X9496911Y-15223072D01*
X9496911Y-15223072D02*
X9515958Y-15213548D01*
X9515958Y-15213548D02*
X9544530Y-15213548D01*
X9544530Y-15213548D02*
X9563577Y-15223072D01*
X9563577Y-15223072D02*
X9573101Y-15242119D01*
X9573101Y-15242119D02*
X9573101Y-15346881D01*
X9668339Y-15346881D02*
X9668339Y-15213548D01*
X9668339Y-15232595D02*
X9677863Y-15223072D01*
X9677863Y-15223072D02*
X9696911Y-15213548D01*
X9696911Y-15213548D02*
X9725482Y-15213548D01*
X9725482Y-15213548D02*
X9744530Y-15223072D01*
X9744530Y-15223072D02*
X9754054Y-15242119D01*
X9754054Y-15242119D02*
X9754054Y-15346881D01*
X9754054Y-15242119D02*
X9763577Y-15223072D01*
X9763577Y-15223072D02*
X9782625Y-15213548D01*
X9782625Y-15213548D02*
X9811196Y-15213548D01*
X9811196Y-15213548D02*
X9830244Y-15223072D01*
X9830244Y-15223072D02*
X9839768Y-15242119D01*
X9839768Y-15242119D02*
X9839768Y-15346881D01*
X10230244Y-15137357D02*
X10058816Y-15394500D01*
X10487387Y-15146881D02*
X10506435Y-15146881D01*
X10506435Y-15146881D02*
X10525482Y-15156405D01*
X10525482Y-15156405D02*
X10535006Y-15165929D01*
X10535006Y-15165929D02*
X10544530Y-15184976D01*
X10544530Y-15184976D02*
X10554054Y-15223072D01*
X10554054Y-15223072D02*
X10554054Y-15270691D01*
X10554054Y-15270691D02*
X10544530Y-15308786D01*
X10544530Y-15308786D02*
X10535006Y-15327833D01*
X10535006Y-15327833D02*
X10525482Y-15337357D01*
X10525482Y-15337357D02*
X10506435Y-15346881D01*
X10506435Y-15346881D02*
X10487387Y-15346881D01*
X10487387Y-15346881D02*
X10468339Y-15337357D01*
X10468339Y-15337357D02*
X10458816Y-15327833D01*
X10458816Y-15327833D02*
X10449292Y-15308786D01*
X10449292Y-15308786D02*
X10439768Y-15270691D01*
X10439768Y-15270691D02*
X10439768Y-15223072D01*
X10439768Y-15223072D02*
X10449292Y-15184976D01*
X10449292Y-15184976D02*
X10458816Y-15165929D01*
X10458816Y-15165929D02*
X10468339Y-15156405D01*
X10468339Y-15156405D02*
X10487387Y-15146881D01*
X10639768Y-15327833D02*
X10649292Y-15337357D01*
X10649292Y-15337357D02*
X10639768Y-15346881D01*
X10639768Y-15346881D02*
X10630244Y-15337357D01*
X10630244Y-15337357D02*
X10639768Y-15327833D01*
X10639768Y-15327833D02*
X10639768Y-15346881D01*
X10773101Y-15146881D02*
X10792149Y-15146881D01*
X10792149Y-15146881D02*
X10811197Y-15156405D01*
X10811197Y-15156405D02*
X10820720Y-15165929D01*
X10820720Y-15165929D02*
X10830244Y-15184976D01*
X10830244Y-15184976D02*
X10839768Y-15223072D01*
X10839768Y-15223072D02*
X10839768Y-15270691D01*
X10839768Y-15270691D02*
X10830244Y-15308786D01*
X10830244Y-15308786D02*
X10820720Y-15327833D01*
X10820720Y-15327833D02*
X10811197Y-15337357D01*
X10811197Y-15337357D02*
X10792149Y-15346881D01*
X10792149Y-15346881D02*
X10773101Y-15346881D01*
X10773101Y-15346881D02*
X10754054Y-15337357D01*
X10754054Y-15337357D02*
X10744530Y-15327833D01*
X10744530Y-15327833D02*
X10735006Y-15308786D01*
X10735006Y-15308786D02*
X10725482Y-15270691D01*
X10725482Y-15270691D02*
X10725482Y-15223072D01*
X10725482Y-15223072D02*
X10735006Y-15184976D01*
X10735006Y-15184976D02*
X10744530Y-15165929D01*
X10744530Y-15165929D02*
X10754054Y-15156405D01*
X10754054Y-15156405D02*
X10773101Y-15146881D01*
X11030244Y-15346881D02*
X10915958Y-15346881D01*
X10973101Y-15346881D02*
X10973101Y-15146881D01*
X10973101Y-15146881D02*
X10954054Y-15175453D01*
X10954054Y-15175453D02*
X10935006Y-15194500D01*
X10935006Y-15194500D02*
X10915958Y-15204024D01*
X11211196Y-15146881D02*
X11115958Y-15146881D01*
X11115958Y-15146881D02*
X11106435Y-15242119D01*
X11106435Y-15242119D02*
X11115958Y-15232595D01*
X11115958Y-15232595D02*
X11135006Y-15223072D01*
X11135006Y-15223072D02*
X11182625Y-15223072D01*
X11182625Y-15223072D02*
X11201673Y-15232595D01*
X11201673Y-15232595D02*
X11211196Y-15242119D01*
X11211196Y-15242119D02*
X11220720Y-15261167D01*
X11220720Y-15261167D02*
X11220720Y-15308786D01*
X11220720Y-15308786D02*
X11211196Y-15327833D01*
X11211196Y-15327833D02*
X11201673Y-15337357D01*
X11201673Y-15337357D02*
X11182625Y-15346881D01*
X11182625Y-15346881D02*
X11135006Y-15346881D01*
X11135006Y-15346881D02*
X11115958Y-15337357D01*
X11115958Y-15337357D02*
X11106435Y-15327833D01*
X11287387Y-15146881D02*
X11420720Y-15146881D01*
X11420720Y-15146881D02*
X11335006Y-15346881D01*
X11487387Y-15146881D02*
X11487387Y-15184976D01*
X11563577Y-15146881D02*
X11563577Y-15184976D01*
X11858816Y-15423072D02*
X11849292Y-15413548D01*
X11849292Y-15413548D02*
X11830244Y-15384976D01*
X11830244Y-15384976D02*
X11820720Y-15365929D01*
X11820720Y-15365929D02*
X11811197Y-15337357D01*
X11811197Y-15337357D02*
X11801673Y-15289738D01*
X11801673Y-15289738D02*
X11801673Y-15251643D01*
X11801673Y-15251643D02*
X11811197Y-15204024D01*
X11811197Y-15204024D02*
X11820720Y-15175453D01*
X11820720Y-15175453D02*
X11830244Y-15156405D01*
X11830244Y-15156405D02*
X11849292Y-15127833D01*
X11849292Y-15127833D02*
X11858816Y-15118310D01*
X12030244Y-15146881D02*
X11935006Y-15146881D01*
X11935006Y-15146881D02*
X11925482Y-15242119D01*
X11925482Y-15242119D02*
X11935006Y-15232595D01*
X11935006Y-15232595D02*
X11954054Y-15223072D01*
X11954054Y-15223072D02*
X12001673Y-15223072D01*
X12001673Y-15223072D02*
X12020720Y-15232595D01*
X12020720Y-15232595D02*
X12030244Y-15242119D01*
X12030244Y-15242119D02*
X12039768Y-15261167D01*
X12039768Y-15261167D02*
X12039768Y-15308786D01*
X12039768Y-15308786D02*
X12030244Y-15327833D01*
X12030244Y-15327833D02*
X12020720Y-15337357D01*
X12020720Y-15337357D02*
X12001673Y-15346881D01*
X12001673Y-15346881D02*
X11954054Y-15346881D01*
X11954054Y-15346881D02*
X11935006Y-15337357D01*
X11935006Y-15337357D02*
X11925482Y-15327833D01*
X12154054Y-15232595D02*
X12135006Y-15223072D01*
X12135006Y-15223072D02*
X12125482Y-15213548D01*
X12125482Y-15213548D02*
X12115958Y-15194500D01*
X12115958Y-15194500D02*
X12115958Y-15184976D01*
X12115958Y-15184976D02*
X12125482Y-15165929D01*
X12125482Y-15165929D02*
X12135006Y-15156405D01*
X12135006Y-15156405D02*
X12154054Y-15146881D01*
X12154054Y-15146881D02*
X12192149Y-15146881D01*
X12192149Y-15146881D02*
X12211197Y-15156405D01*
X12211197Y-15156405D02*
X12220720Y-15165929D01*
X12220720Y-15165929D02*
X12230244Y-15184976D01*
X12230244Y-15184976D02*
X12230244Y-15194500D01*
X12230244Y-15194500D02*
X12220720Y-15213548D01*
X12220720Y-15213548D02*
X12211197Y-15223072D01*
X12211197Y-15223072D02*
X12192149Y-15232595D01*
X12192149Y-15232595D02*
X12154054Y-15232595D01*
X12154054Y-15232595D02*
X12135006Y-15242119D01*
X12135006Y-15242119D02*
X12125482Y-15251643D01*
X12125482Y-15251643D02*
X12115958Y-15270691D01*
X12115958Y-15270691D02*
X12115958Y-15308786D01*
X12115958Y-15308786D02*
X12125482Y-15327833D01*
X12125482Y-15327833D02*
X12135006Y-15337357D01*
X12135006Y-15337357D02*
X12154054Y-15346881D01*
X12154054Y-15346881D02*
X12192149Y-15346881D01*
X12192149Y-15346881D02*
X12211197Y-15337357D01*
X12211197Y-15337357D02*
X12220720Y-15327833D01*
X12220720Y-15327833D02*
X12230244Y-15308786D01*
X12230244Y-15308786D02*
X12230244Y-15270691D01*
X12230244Y-15270691D02*
X12220720Y-15251643D01*
X12220720Y-15251643D02*
X12211197Y-15242119D01*
X12211197Y-15242119D02*
X12192149Y-15232595D01*
X12468339Y-15346881D02*
X12468339Y-15146881D01*
X12554054Y-15346881D02*
X12554054Y-15242119D01*
X12554054Y-15242119D02*
X12544530Y-15223072D01*
X12544530Y-15223072D02*
X12525482Y-15213548D01*
X12525482Y-15213548D02*
X12496911Y-15213548D01*
X12496911Y-15213548D02*
X12477863Y-15223072D01*
X12477863Y-15223072D02*
X12468339Y-15232595D01*
X12677863Y-15346881D02*
X12658816Y-15337357D01*
X12658816Y-15337357D02*
X12649292Y-15327833D01*
X12649292Y-15327833D02*
X12639768Y-15308786D01*
X12639768Y-15308786D02*
X12639768Y-15251643D01*
X12639768Y-15251643D02*
X12649292Y-15232595D01*
X12649292Y-15232595D02*
X12658816Y-15223072D01*
X12658816Y-15223072D02*
X12677863Y-15213548D01*
X12677863Y-15213548D02*
X12706435Y-15213548D01*
X12706435Y-15213548D02*
X12725482Y-15223072D01*
X12725482Y-15223072D02*
X12735006Y-15232595D01*
X12735006Y-15232595D02*
X12744530Y-15251643D01*
X12744530Y-15251643D02*
X12744530Y-15308786D01*
X12744530Y-15308786D02*
X12735006Y-15327833D01*
X12735006Y-15327833D02*
X12725482Y-15337357D01*
X12725482Y-15337357D02*
X12706435Y-15346881D01*
X12706435Y-15346881D02*
X12677863Y-15346881D01*
X12858816Y-15346881D02*
X12839768Y-15337357D01*
X12839768Y-15337357D02*
X12830244Y-15318310D01*
X12830244Y-15318310D02*
X12830244Y-15146881D01*
X13011197Y-15337357D02*
X12992149Y-15346881D01*
X12992149Y-15346881D02*
X12954054Y-15346881D01*
X12954054Y-15346881D02*
X12935006Y-15337357D01*
X12935006Y-15337357D02*
X12925482Y-15318310D01*
X12925482Y-15318310D02*
X12925482Y-15242119D01*
X12925482Y-15242119D02*
X12935006Y-15223072D01*
X12935006Y-15223072D02*
X12954054Y-15213548D01*
X12954054Y-15213548D02*
X12992149Y-15213548D01*
X12992149Y-15213548D02*
X13011197Y-15223072D01*
X13011197Y-15223072D02*
X13020720Y-15242119D01*
X13020720Y-15242119D02*
X13020720Y-15261167D01*
X13020720Y-15261167D02*
X12925482Y-15280214D01*
X13096911Y-15337357D02*
X13115959Y-15346881D01*
X13115959Y-15346881D02*
X13154054Y-15346881D01*
X13154054Y-15346881D02*
X13173101Y-15337357D01*
X13173101Y-15337357D02*
X13182625Y-15318310D01*
X13182625Y-15318310D02*
X13182625Y-15308786D01*
X13182625Y-15308786D02*
X13173101Y-15289738D01*
X13173101Y-15289738D02*
X13154054Y-15280214D01*
X13154054Y-15280214D02*
X13125482Y-15280214D01*
X13125482Y-15280214D02*
X13106435Y-15270691D01*
X13106435Y-15270691D02*
X13096911Y-15251643D01*
X13096911Y-15251643D02*
X13096911Y-15242119D01*
X13096911Y-15242119D02*
X13106435Y-15223072D01*
X13106435Y-15223072D02*
X13125482Y-15213548D01*
X13125482Y-15213548D02*
X13154054Y-15213548D01*
X13154054Y-15213548D02*
X13173101Y-15223072D01*
X13249292Y-15423072D02*
X13258816Y-15413548D01*
X13258816Y-15413548D02*
X13277863Y-15384976D01*
X13277863Y-15384976D02*
X13287387Y-15365929D01*
X13287387Y-15365929D02*
X13296911Y-15337357D01*
X13296911Y-15337357D02*
X13306435Y-15289738D01*
X13306435Y-15289738D02*
X13306435Y-15251643D01*
X13306435Y-15251643D02*
X13296911Y-15204024D01*
X13296911Y-15204024D02*
X13287387Y-15175453D01*
X13287387Y-15175453D02*
X13277863Y-15156405D01*
X13277863Y-15156405D02*
X13258816Y-15127833D01*
X13258816Y-15127833D02*
X13249292Y-15118310D01*
D11*
X8243113Y-15478757D02*
X8243113Y-15560037D01*
X8202473Y-15519397D02*
X8283753Y-15519397D01*
D10*
X8582625Y-15410881D02*
X8601673Y-15410881D01*
X8601673Y-15410881D02*
X8620720Y-15420405D01*
X8620720Y-15420405D02*
X8630244Y-15429929D01*
X8630244Y-15429929D02*
X8639768Y-15448976D01*
X8639768Y-15448976D02*
X8649292Y-15487072D01*
X8649292Y-15487072D02*
X8649292Y-15534691D01*
X8649292Y-15534691D02*
X8639768Y-15572786D01*
X8639768Y-15572786D02*
X8630244Y-15591833D01*
X8630244Y-15591833D02*
X8620720Y-15601357D01*
X8620720Y-15601357D02*
X8601673Y-15610881D01*
X8601673Y-15610881D02*
X8582625Y-15610881D01*
X8582625Y-15610881D02*
X8563577Y-15601357D01*
X8563577Y-15601357D02*
X8554053Y-15591833D01*
X8554053Y-15591833D02*
X8544530Y-15572786D01*
X8544530Y-15572786D02*
X8535006Y-15534691D01*
X8535006Y-15534691D02*
X8535006Y-15487072D01*
X8535006Y-15487072D02*
X8544530Y-15448976D01*
X8544530Y-15448976D02*
X8554053Y-15429929D01*
X8554053Y-15429929D02*
X8563577Y-15420405D01*
X8563577Y-15420405D02*
X8582625Y-15410881D01*
X8735006Y-15591833D02*
X8744530Y-15601357D01*
X8744530Y-15601357D02*
X8735006Y-15610881D01*
X8735006Y-15610881D02*
X8725482Y-15601357D01*
X8725482Y-15601357D02*
X8735006Y-15591833D01*
X8735006Y-15591833D02*
X8735006Y-15610881D01*
X8858815Y-15496595D02*
X8839768Y-15487072D01*
X8839768Y-15487072D02*
X8830244Y-15477548D01*
X8830244Y-15477548D02*
X8820720Y-15458500D01*
X8820720Y-15458500D02*
X8820720Y-15448976D01*
X8820720Y-15448976D02*
X8830244Y-15429929D01*
X8830244Y-15429929D02*
X8839768Y-15420405D01*
X8839768Y-15420405D02*
X8858815Y-15410881D01*
X8858815Y-15410881D02*
X8896911Y-15410881D01*
X8896911Y-15410881D02*
X8915958Y-15420405D01*
X8915958Y-15420405D02*
X8925482Y-15429929D01*
X8925482Y-15429929D02*
X8935006Y-15448976D01*
X8935006Y-15448976D02*
X8935006Y-15458500D01*
X8935006Y-15458500D02*
X8925482Y-15477548D01*
X8925482Y-15477548D02*
X8915958Y-15487072D01*
X8915958Y-15487072D02*
X8896911Y-15496595D01*
X8896911Y-15496595D02*
X8858815Y-15496595D01*
X8858815Y-15496595D02*
X8839768Y-15506119D01*
X8839768Y-15506119D02*
X8830244Y-15515643D01*
X8830244Y-15515643D02*
X8820720Y-15534691D01*
X8820720Y-15534691D02*
X8820720Y-15572786D01*
X8820720Y-15572786D02*
X8830244Y-15591833D01*
X8830244Y-15591833D02*
X8839768Y-15601357D01*
X8839768Y-15601357D02*
X8858815Y-15610881D01*
X8858815Y-15610881D02*
X8896911Y-15610881D01*
X8896911Y-15610881D02*
X8915958Y-15601357D01*
X8915958Y-15601357D02*
X8925482Y-15591833D01*
X8925482Y-15591833D02*
X8935006Y-15572786D01*
X8935006Y-15572786D02*
X8935006Y-15534691D01*
X8935006Y-15534691D02*
X8925482Y-15515643D01*
X8925482Y-15515643D02*
X8915958Y-15506119D01*
X8915958Y-15506119D02*
X8896911Y-15496595D01*
X9125482Y-15610881D02*
X9011196Y-15610881D01*
X9068339Y-15610881D02*
X9068339Y-15410881D01*
X9068339Y-15410881D02*
X9049292Y-15439453D01*
X9049292Y-15439453D02*
X9030244Y-15458500D01*
X9030244Y-15458500D02*
X9011196Y-15468024D01*
X9192149Y-15410881D02*
X9315958Y-15410881D01*
X9315958Y-15410881D02*
X9249292Y-15487072D01*
X9249292Y-15487072D02*
X9277863Y-15487072D01*
X9277863Y-15487072D02*
X9296911Y-15496595D01*
X9296911Y-15496595D02*
X9306434Y-15506119D01*
X9306434Y-15506119D02*
X9315958Y-15525167D01*
X9315958Y-15525167D02*
X9315958Y-15572786D01*
X9315958Y-15572786D02*
X9306434Y-15591833D01*
X9306434Y-15591833D02*
X9296911Y-15601357D01*
X9296911Y-15601357D02*
X9277863Y-15610881D01*
X9277863Y-15610881D02*
X9220720Y-15610881D01*
X9220720Y-15610881D02*
X9201673Y-15601357D01*
X9201673Y-15601357D02*
X9192149Y-15591833D01*
X9401673Y-15610881D02*
X9401673Y-15477548D01*
X9401673Y-15496595D02*
X9411196Y-15487072D01*
X9411196Y-15487072D02*
X9430244Y-15477548D01*
X9430244Y-15477548D02*
X9458815Y-15477548D01*
X9458815Y-15477548D02*
X9477863Y-15487072D01*
X9477863Y-15487072D02*
X9487387Y-15506119D01*
X9487387Y-15506119D02*
X9487387Y-15610881D01*
X9487387Y-15506119D02*
X9496911Y-15487072D01*
X9496911Y-15487072D02*
X9515958Y-15477548D01*
X9515958Y-15477548D02*
X9544530Y-15477548D01*
X9544530Y-15477548D02*
X9563577Y-15487072D01*
X9563577Y-15487072D02*
X9573101Y-15506119D01*
X9573101Y-15506119D02*
X9573101Y-15610881D01*
X9668339Y-15610881D02*
X9668339Y-15477548D01*
X9668339Y-15496595D02*
X9677863Y-15487072D01*
X9677863Y-15487072D02*
X9696911Y-15477548D01*
X9696911Y-15477548D02*
X9725482Y-15477548D01*
X9725482Y-15477548D02*
X9744530Y-15487072D01*
X9744530Y-15487072D02*
X9754054Y-15506119D01*
X9754054Y-15506119D02*
X9754054Y-15610881D01*
X9754054Y-15506119D02*
X9763577Y-15487072D01*
X9763577Y-15487072D02*
X9782625Y-15477548D01*
X9782625Y-15477548D02*
X9811196Y-15477548D01*
X9811196Y-15477548D02*
X9830244Y-15487072D01*
X9830244Y-15487072D02*
X9839768Y-15506119D01*
X9839768Y-15506119D02*
X9839768Y-15610881D01*
X10230244Y-15401357D02*
X10058816Y-15658500D01*
X10487387Y-15410881D02*
X10506435Y-15410881D01*
X10506435Y-15410881D02*
X10525482Y-15420405D01*
X10525482Y-15420405D02*
X10535006Y-15429929D01*
X10535006Y-15429929D02*
X10544530Y-15448976D01*
X10544530Y-15448976D02*
X10554054Y-15487072D01*
X10554054Y-15487072D02*
X10554054Y-15534691D01*
X10554054Y-15534691D02*
X10544530Y-15572786D01*
X10544530Y-15572786D02*
X10535006Y-15591833D01*
X10535006Y-15591833D02*
X10525482Y-15601357D01*
X10525482Y-15601357D02*
X10506435Y-15610881D01*
X10506435Y-15610881D02*
X10487387Y-15610881D01*
X10487387Y-15610881D02*
X10468339Y-15601357D01*
X10468339Y-15601357D02*
X10458816Y-15591833D01*
X10458816Y-15591833D02*
X10449292Y-15572786D01*
X10449292Y-15572786D02*
X10439768Y-15534691D01*
X10439768Y-15534691D02*
X10439768Y-15487072D01*
X10439768Y-15487072D02*
X10449292Y-15448976D01*
X10449292Y-15448976D02*
X10458816Y-15429929D01*
X10458816Y-15429929D02*
X10468339Y-15420405D01*
X10468339Y-15420405D02*
X10487387Y-15410881D01*
X10639768Y-15591833D02*
X10649292Y-15601357D01*
X10649292Y-15601357D02*
X10639768Y-15610881D01*
X10639768Y-15610881D02*
X10630244Y-15601357D01*
X10630244Y-15601357D02*
X10639768Y-15591833D01*
X10639768Y-15591833D02*
X10639768Y-15610881D01*
X10773101Y-15410881D02*
X10792149Y-15410881D01*
X10792149Y-15410881D02*
X10811197Y-15420405D01*
X10811197Y-15420405D02*
X10820720Y-15429929D01*
X10820720Y-15429929D02*
X10830244Y-15448976D01*
X10830244Y-15448976D02*
X10839768Y-15487072D01*
X10839768Y-15487072D02*
X10839768Y-15534691D01*
X10839768Y-15534691D02*
X10830244Y-15572786D01*
X10830244Y-15572786D02*
X10820720Y-15591833D01*
X10820720Y-15591833D02*
X10811197Y-15601357D01*
X10811197Y-15601357D02*
X10792149Y-15610881D01*
X10792149Y-15610881D02*
X10773101Y-15610881D01*
X10773101Y-15610881D02*
X10754054Y-15601357D01*
X10754054Y-15601357D02*
X10744530Y-15591833D01*
X10744530Y-15591833D02*
X10735006Y-15572786D01*
X10735006Y-15572786D02*
X10725482Y-15534691D01*
X10725482Y-15534691D02*
X10725482Y-15487072D01*
X10725482Y-15487072D02*
X10735006Y-15448976D01*
X10735006Y-15448976D02*
X10744530Y-15429929D01*
X10744530Y-15429929D02*
X10754054Y-15420405D01*
X10754054Y-15420405D02*
X10773101Y-15410881D01*
X10906435Y-15410881D02*
X11030244Y-15410881D01*
X11030244Y-15410881D02*
X10963577Y-15487072D01*
X10963577Y-15487072D02*
X10992149Y-15487072D01*
X10992149Y-15487072D02*
X11011197Y-15496595D01*
X11011197Y-15496595D02*
X11020720Y-15506119D01*
X11020720Y-15506119D02*
X11030244Y-15525167D01*
X11030244Y-15525167D02*
X11030244Y-15572786D01*
X11030244Y-15572786D02*
X11020720Y-15591833D01*
X11020720Y-15591833D02*
X11011197Y-15601357D01*
X11011197Y-15601357D02*
X10992149Y-15610881D01*
X10992149Y-15610881D02*
X10935006Y-15610881D01*
X10935006Y-15610881D02*
X10915958Y-15601357D01*
X10915958Y-15601357D02*
X10906435Y-15591833D01*
X11106435Y-15429929D02*
X11115958Y-15420405D01*
X11115958Y-15420405D02*
X11135006Y-15410881D01*
X11135006Y-15410881D02*
X11182625Y-15410881D01*
X11182625Y-15410881D02*
X11201673Y-15420405D01*
X11201673Y-15420405D02*
X11211196Y-15429929D01*
X11211196Y-15429929D02*
X11220720Y-15448976D01*
X11220720Y-15448976D02*
X11220720Y-15468024D01*
X11220720Y-15468024D02*
X11211196Y-15496595D01*
X11211196Y-15496595D02*
X11096911Y-15610881D01*
X11096911Y-15610881D02*
X11220720Y-15610881D01*
X11344530Y-15410881D02*
X11363577Y-15410881D01*
X11363577Y-15410881D02*
X11382625Y-15420405D01*
X11382625Y-15420405D02*
X11392149Y-15429929D01*
X11392149Y-15429929D02*
X11401673Y-15448976D01*
X11401673Y-15448976D02*
X11411196Y-15487072D01*
X11411196Y-15487072D02*
X11411196Y-15534691D01*
X11411196Y-15534691D02*
X11401673Y-15572786D01*
X11401673Y-15572786D02*
X11392149Y-15591833D01*
X11392149Y-15591833D02*
X11382625Y-15601357D01*
X11382625Y-15601357D02*
X11363577Y-15610881D01*
X11363577Y-15610881D02*
X11344530Y-15610881D01*
X11344530Y-15610881D02*
X11325482Y-15601357D01*
X11325482Y-15601357D02*
X11315958Y-15591833D01*
X11315958Y-15591833D02*
X11306435Y-15572786D01*
X11306435Y-15572786D02*
X11296911Y-15534691D01*
X11296911Y-15534691D02*
X11296911Y-15487072D01*
X11296911Y-15487072D02*
X11306435Y-15448976D01*
X11306435Y-15448976D02*
X11315958Y-15429929D01*
X11315958Y-15429929D02*
X11325482Y-15420405D01*
X11325482Y-15420405D02*
X11344530Y-15410881D01*
X11487387Y-15410881D02*
X11487387Y-15448976D01*
X11563577Y-15410881D02*
X11563577Y-15448976D01*
X11858816Y-15687072D02*
X11849292Y-15677548D01*
X11849292Y-15677548D02*
X11830244Y-15648976D01*
X11830244Y-15648976D02*
X11820720Y-15629929D01*
X11820720Y-15629929D02*
X11811197Y-15601357D01*
X11811197Y-15601357D02*
X11801673Y-15553738D01*
X11801673Y-15553738D02*
X11801673Y-15515643D01*
X11801673Y-15515643D02*
X11811197Y-15468024D01*
X11811197Y-15468024D02*
X11820720Y-15439453D01*
X11820720Y-15439453D02*
X11830244Y-15420405D01*
X11830244Y-15420405D02*
X11849292Y-15391833D01*
X11849292Y-15391833D02*
X11858816Y-15382310D01*
X12030244Y-15410881D02*
X11935006Y-15410881D01*
X11935006Y-15410881D02*
X11925482Y-15506119D01*
X11925482Y-15506119D02*
X11935006Y-15496595D01*
X11935006Y-15496595D02*
X11954054Y-15487072D01*
X11954054Y-15487072D02*
X12001673Y-15487072D01*
X12001673Y-15487072D02*
X12020720Y-15496595D01*
X12020720Y-15496595D02*
X12030244Y-15506119D01*
X12030244Y-15506119D02*
X12039768Y-15525167D01*
X12039768Y-15525167D02*
X12039768Y-15572786D01*
X12039768Y-15572786D02*
X12030244Y-15591833D01*
X12030244Y-15591833D02*
X12020720Y-15601357D01*
X12020720Y-15601357D02*
X12001673Y-15610881D01*
X12001673Y-15610881D02*
X11954054Y-15610881D01*
X11954054Y-15610881D02*
X11935006Y-15601357D01*
X11935006Y-15601357D02*
X11925482Y-15591833D01*
X12220720Y-15410881D02*
X12125482Y-15410881D01*
X12125482Y-15410881D02*
X12115958Y-15506119D01*
X12115958Y-15506119D02*
X12125482Y-15496595D01*
X12125482Y-15496595D02*
X12144530Y-15487072D01*
X12144530Y-15487072D02*
X12192149Y-15487072D01*
X12192149Y-15487072D02*
X12211197Y-15496595D01*
X12211197Y-15496595D02*
X12220720Y-15506119D01*
X12220720Y-15506119D02*
X12230244Y-15525167D01*
X12230244Y-15525167D02*
X12230244Y-15572786D01*
X12230244Y-15572786D02*
X12220720Y-15591833D01*
X12220720Y-15591833D02*
X12211197Y-15601357D01*
X12211197Y-15601357D02*
X12192149Y-15610881D01*
X12192149Y-15610881D02*
X12144530Y-15610881D01*
X12144530Y-15610881D02*
X12125482Y-15601357D01*
X12125482Y-15601357D02*
X12115958Y-15591833D01*
X12468339Y-15610881D02*
X12468339Y-15410881D01*
X12554054Y-15610881D02*
X12554054Y-15506119D01*
X12554054Y-15506119D02*
X12544530Y-15487072D01*
X12544530Y-15487072D02*
X12525482Y-15477548D01*
X12525482Y-15477548D02*
X12496911Y-15477548D01*
X12496911Y-15477548D02*
X12477863Y-15487072D01*
X12477863Y-15487072D02*
X12468339Y-15496595D01*
X12677863Y-15610881D02*
X12658816Y-15601357D01*
X12658816Y-15601357D02*
X12649292Y-15591833D01*
X12649292Y-15591833D02*
X12639768Y-15572786D01*
X12639768Y-15572786D02*
X12639768Y-15515643D01*
X12639768Y-15515643D02*
X12649292Y-15496595D01*
X12649292Y-15496595D02*
X12658816Y-15487072D01*
X12658816Y-15487072D02*
X12677863Y-15477548D01*
X12677863Y-15477548D02*
X12706435Y-15477548D01*
X12706435Y-15477548D02*
X12725482Y-15487072D01*
X12725482Y-15487072D02*
X12735006Y-15496595D01*
X12735006Y-15496595D02*
X12744530Y-15515643D01*
X12744530Y-15515643D02*
X12744530Y-15572786D01*
X12744530Y-15572786D02*
X12735006Y-15591833D01*
X12735006Y-15591833D02*
X12725482Y-15601357D01*
X12725482Y-15601357D02*
X12706435Y-15610881D01*
X12706435Y-15610881D02*
X12677863Y-15610881D01*
X12858816Y-15610881D02*
X12839768Y-15601357D01*
X12839768Y-15601357D02*
X12830244Y-15582310D01*
X12830244Y-15582310D02*
X12830244Y-15410881D01*
X13011197Y-15601357D02*
X12992149Y-15610881D01*
X12992149Y-15610881D02*
X12954054Y-15610881D01*
X12954054Y-15610881D02*
X12935006Y-15601357D01*
X12935006Y-15601357D02*
X12925482Y-15582310D01*
X12925482Y-15582310D02*
X12925482Y-15506119D01*
X12925482Y-15506119D02*
X12935006Y-15487072D01*
X12935006Y-15487072D02*
X12954054Y-15477548D01*
X12954054Y-15477548D02*
X12992149Y-15477548D01*
X12992149Y-15477548D02*
X13011197Y-15487072D01*
X13011197Y-15487072D02*
X13020720Y-15506119D01*
X13020720Y-15506119D02*
X13020720Y-15525167D01*
X13020720Y-15525167D02*
X12925482Y-15544214D01*
X13096911Y-15601357D02*
X13115959Y-15610881D01*
X13115959Y-15610881D02*
X13154054Y-15610881D01*
X13154054Y-15610881D02*
X13173101Y-15601357D01*
X13173101Y-15601357D02*
X13182625Y-15582310D01*
X13182625Y-15582310D02*
X13182625Y-15572786D01*
X13182625Y-15572786D02*
X13173101Y-15553738D01*
X13173101Y-15553738D02*
X13154054Y-15544214D01*
X13154054Y-15544214D02*
X13125482Y-15544214D01*
X13125482Y-15544214D02*
X13106435Y-15534691D01*
X13106435Y-15534691D02*
X13096911Y-15515643D01*
X13096911Y-15515643D02*
X13096911Y-15506119D01*
X13096911Y-15506119D02*
X13106435Y-15487072D01*
X13106435Y-15487072D02*
X13125482Y-15477548D01*
X13125482Y-15477548D02*
X13154054Y-15477548D01*
X13154054Y-15477548D02*
X13173101Y-15487072D01*
X13249292Y-15687072D02*
X13258816Y-15677548D01*
X13258816Y-15677548D02*
X13277863Y-15648976D01*
X13277863Y-15648976D02*
X13287387Y-15629929D01*
X13287387Y-15629929D02*
X13296911Y-15601357D01*
X13296911Y-15601357D02*
X13306435Y-15553738D01*
X13306435Y-15553738D02*
X13306435Y-15515643D01*
X13306435Y-15515643D02*
X13296911Y-15468024D01*
X13296911Y-15468024D02*
X13287387Y-15439453D01*
X13287387Y-15439453D02*
X13277863Y-15420405D01*
X13277863Y-15420405D02*
X13258816Y-15391833D01*
X13258816Y-15391833D02*
X13249292Y-15382310D01*
D12*
X8264715Y-15829360D02*
X8264715Y-15737435D01*
X8172790Y-15737435D01*
X8172790Y-15829360D01*
X8264715Y-15829360D01*
D10*
X8649292Y-15874881D02*
X8535006Y-15874881D01*
X8592149Y-15874881D02*
X8592149Y-15674881D01*
X8592149Y-15674881D02*
X8573101Y-15703453D01*
X8573101Y-15703453D02*
X8554053Y-15722500D01*
X8554053Y-15722500D02*
X8535006Y-15732024D01*
X8735006Y-15855833D02*
X8744530Y-15865357D01*
X8744530Y-15865357D02*
X8735006Y-15874881D01*
X8735006Y-15874881D02*
X8725482Y-15865357D01*
X8725482Y-15865357D02*
X8735006Y-15855833D01*
X8735006Y-15855833D02*
X8735006Y-15874881D01*
X8811196Y-15674881D02*
X8935006Y-15674881D01*
X8935006Y-15674881D02*
X8868339Y-15751072D01*
X8868339Y-15751072D02*
X8896911Y-15751072D01*
X8896911Y-15751072D02*
X8915958Y-15760595D01*
X8915958Y-15760595D02*
X8925482Y-15770119D01*
X8925482Y-15770119D02*
X8935006Y-15789167D01*
X8935006Y-15789167D02*
X8935006Y-15836786D01*
X8935006Y-15836786D02*
X8925482Y-15855833D01*
X8925482Y-15855833D02*
X8915958Y-15865357D01*
X8915958Y-15865357D02*
X8896911Y-15874881D01*
X8896911Y-15874881D02*
X8839768Y-15874881D01*
X8839768Y-15874881D02*
X8820720Y-15865357D01*
X8820720Y-15865357D02*
X8811196Y-15855833D01*
X9058815Y-15674881D02*
X9077863Y-15674881D01*
X9077863Y-15674881D02*
X9096911Y-15684405D01*
X9096911Y-15684405D02*
X9106434Y-15693929D01*
X9106434Y-15693929D02*
X9115958Y-15712976D01*
X9115958Y-15712976D02*
X9125482Y-15751072D01*
X9125482Y-15751072D02*
X9125482Y-15798691D01*
X9125482Y-15798691D02*
X9115958Y-15836786D01*
X9115958Y-15836786D02*
X9106434Y-15855833D01*
X9106434Y-15855833D02*
X9096911Y-15865357D01*
X9096911Y-15865357D02*
X9077863Y-15874881D01*
X9077863Y-15874881D02*
X9058815Y-15874881D01*
X9058815Y-15874881D02*
X9039768Y-15865357D01*
X9039768Y-15865357D02*
X9030244Y-15855833D01*
X9030244Y-15855833D02*
X9020720Y-15836786D01*
X9020720Y-15836786D02*
X9011196Y-15798691D01*
X9011196Y-15798691D02*
X9011196Y-15751072D01*
X9011196Y-15751072D02*
X9020720Y-15712976D01*
X9020720Y-15712976D02*
X9030244Y-15693929D01*
X9030244Y-15693929D02*
X9039768Y-15684405D01*
X9039768Y-15684405D02*
X9058815Y-15674881D01*
X9249292Y-15674881D02*
X9268339Y-15674881D01*
X9268339Y-15674881D02*
X9287387Y-15684405D01*
X9287387Y-15684405D02*
X9296911Y-15693929D01*
X9296911Y-15693929D02*
X9306434Y-15712976D01*
X9306434Y-15712976D02*
X9315958Y-15751072D01*
X9315958Y-15751072D02*
X9315958Y-15798691D01*
X9315958Y-15798691D02*
X9306434Y-15836786D01*
X9306434Y-15836786D02*
X9296911Y-15855833D01*
X9296911Y-15855833D02*
X9287387Y-15865357D01*
X9287387Y-15865357D02*
X9268339Y-15874881D01*
X9268339Y-15874881D02*
X9249292Y-15874881D01*
X9249292Y-15874881D02*
X9230244Y-15865357D01*
X9230244Y-15865357D02*
X9220720Y-15855833D01*
X9220720Y-15855833D02*
X9211196Y-15836786D01*
X9211196Y-15836786D02*
X9201673Y-15798691D01*
X9201673Y-15798691D02*
X9201673Y-15751072D01*
X9201673Y-15751072D02*
X9211196Y-15712976D01*
X9211196Y-15712976D02*
X9220720Y-15693929D01*
X9220720Y-15693929D02*
X9230244Y-15684405D01*
X9230244Y-15684405D02*
X9249292Y-15674881D01*
X9401673Y-15874881D02*
X9401673Y-15741548D01*
X9401673Y-15760595D02*
X9411196Y-15751072D01*
X9411196Y-15751072D02*
X9430244Y-15741548D01*
X9430244Y-15741548D02*
X9458815Y-15741548D01*
X9458815Y-15741548D02*
X9477863Y-15751072D01*
X9477863Y-15751072D02*
X9487387Y-15770119D01*
X9487387Y-15770119D02*
X9487387Y-15874881D01*
X9487387Y-15770119D02*
X9496911Y-15751072D01*
X9496911Y-15751072D02*
X9515958Y-15741548D01*
X9515958Y-15741548D02*
X9544530Y-15741548D01*
X9544530Y-15741548D02*
X9563577Y-15751072D01*
X9563577Y-15751072D02*
X9573101Y-15770119D01*
X9573101Y-15770119D02*
X9573101Y-15874881D01*
X9668339Y-15874881D02*
X9668339Y-15741548D01*
X9668339Y-15760595D02*
X9677863Y-15751072D01*
X9677863Y-15751072D02*
X9696911Y-15741548D01*
X9696911Y-15741548D02*
X9725482Y-15741548D01*
X9725482Y-15741548D02*
X9744530Y-15751072D01*
X9744530Y-15751072D02*
X9754054Y-15770119D01*
X9754054Y-15770119D02*
X9754054Y-15874881D01*
X9754054Y-15770119D02*
X9763577Y-15751072D01*
X9763577Y-15751072D02*
X9782625Y-15741548D01*
X9782625Y-15741548D02*
X9811196Y-15741548D01*
X9811196Y-15741548D02*
X9830244Y-15751072D01*
X9830244Y-15751072D02*
X9839768Y-15770119D01*
X9839768Y-15770119D02*
X9839768Y-15874881D01*
X10230244Y-15665357D02*
X10058816Y-15922500D01*
X10487387Y-15674881D02*
X10506435Y-15674881D01*
X10506435Y-15674881D02*
X10525482Y-15684405D01*
X10525482Y-15684405D02*
X10535006Y-15693929D01*
X10535006Y-15693929D02*
X10544530Y-15712976D01*
X10544530Y-15712976D02*
X10554054Y-15751072D01*
X10554054Y-15751072D02*
X10554054Y-15798691D01*
X10554054Y-15798691D02*
X10544530Y-15836786D01*
X10544530Y-15836786D02*
X10535006Y-15855833D01*
X10535006Y-15855833D02*
X10525482Y-15865357D01*
X10525482Y-15865357D02*
X10506435Y-15874881D01*
X10506435Y-15874881D02*
X10487387Y-15874881D01*
X10487387Y-15874881D02*
X10468339Y-15865357D01*
X10468339Y-15865357D02*
X10458816Y-15855833D01*
X10458816Y-15855833D02*
X10449292Y-15836786D01*
X10449292Y-15836786D02*
X10439768Y-15798691D01*
X10439768Y-15798691D02*
X10439768Y-15751072D01*
X10439768Y-15751072D02*
X10449292Y-15712976D01*
X10449292Y-15712976D02*
X10458816Y-15693929D01*
X10458816Y-15693929D02*
X10468339Y-15684405D01*
X10468339Y-15684405D02*
X10487387Y-15674881D01*
X10639768Y-15855833D02*
X10649292Y-15865357D01*
X10649292Y-15865357D02*
X10639768Y-15874881D01*
X10639768Y-15874881D02*
X10630244Y-15865357D01*
X10630244Y-15865357D02*
X10639768Y-15855833D01*
X10639768Y-15855833D02*
X10639768Y-15874881D01*
X10773101Y-15674881D02*
X10792149Y-15674881D01*
X10792149Y-15674881D02*
X10811197Y-15684405D01*
X10811197Y-15684405D02*
X10820720Y-15693929D01*
X10820720Y-15693929D02*
X10830244Y-15712976D01*
X10830244Y-15712976D02*
X10839768Y-15751072D01*
X10839768Y-15751072D02*
X10839768Y-15798691D01*
X10839768Y-15798691D02*
X10830244Y-15836786D01*
X10830244Y-15836786D02*
X10820720Y-15855833D01*
X10820720Y-15855833D02*
X10811197Y-15865357D01*
X10811197Y-15865357D02*
X10792149Y-15874881D01*
X10792149Y-15874881D02*
X10773101Y-15874881D01*
X10773101Y-15874881D02*
X10754054Y-15865357D01*
X10754054Y-15865357D02*
X10744530Y-15855833D01*
X10744530Y-15855833D02*
X10735006Y-15836786D01*
X10735006Y-15836786D02*
X10725482Y-15798691D01*
X10725482Y-15798691D02*
X10725482Y-15751072D01*
X10725482Y-15751072D02*
X10735006Y-15712976D01*
X10735006Y-15712976D02*
X10744530Y-15693929D01*
X10744530Y-15693929D02*
X10754054Y-15684405D01*
X10754054Y-15684405D02*
X10773101Y-15674881D01*
X11020720Y-15674881D02*
X10925482Y-15674881D01*
X10925482Y-15674881D02*
X10915958Y-15770119D01*
X10915958Y-15770119D02*
X10925482Y-15760595D01*
X10925482Y-15760595D02*
X10944530Y-15751072D01*
X10944530Y-15751072D02*
X10992149Y-15751072D01*
X10992149Y-15751072D02*
X11011197Y-15760595D01*
X11011197Y-15760595D02*
X11020720Y-15770119D01*
X11020720Y-15770119D02*
X11030244Y-15789167D01*
X11030244Y-15789167D02*
X11030244Y-15836786D01*
X11030244Y-15836786D02*
X11020720Y-15855833D01*
X11020720Y-15855833D02*
X11011197Y-15865357D01*
X11011197Y-15865357D02*
X10992149Y-15874881D01*
X10992149Y-15874881D02*
X10944530Y-15874881D01*
X10944530Y-15874881D02*
X10925482Y-15865357D01*
X10925482Y-15865357D02*
X10915958Y-15855833D01*
X11220720Y-15874881D02*
X11106435Y-15874881D01*
X11163577Y-15874881D02*
X11163577Y-15674881D01*
X11163577Y-15674881D02*
X11144530Y-15703453D01*
X11144530Y-15703453D02*
X11125482Y-15722500D01*
X11125482Y-15722500D02*
X11106435Y-15732024D01*
X11296911Y-15693929D02*
X11306435Y-15684405D01*
X11306435Y-15684405D02*
X11325482Y-15674881D01*
X11325482Y-15674881D02*
X11373101Y-15674881D01*
X11373101Y-15674881D02*
X11392149Y-15684405D01*
X11392149Y-15684405D02*
X11401673Y-15693929D01*
X11401673Y-15693929D02*
X11411196Y-15712976D01*
X11411196Y-15712976D02*
X11411196Y-15732024D01*
X11411196Y-15732024D02*
X11401673Y-15760595D01*
X11401673Y-15760595D02*
X11287387Y-15874881D01*
X11287387Y-15874881D02*
X11411196Y-15874881D01*
X11487387Y-15674881D02*
X11487387Y-15712976D01*
X11563577Y-15674881D02*
X11563577Y-15712976D01*
X11858816Y-15951072D02*
X11849292Y-15941548D01*
X11849292Y-15941548D02*
X11830244Y-15912976D01*
X11830244Y-15912976D02*
X11820720Y-15893929D01*
X11820720Y-15893929D02*
X11811197Y-15865357D01*
X11811197Y-15865357D02*
X11801673Y-15817738D01*
X11801673Y-15817738D02*
X11801673Y-15779643D01*
X11801673Y-15779643D02*
X11811197Y-15732024D01*
X11811197Y-15732024D02*
X11820720Y-15703453D01*
X11820720Y-15703453D02*
X11830244Y-15684405D01*
X11830244Y-15684405D02*
X11849292Y-15655833D01*
X11849292Y-15655833D02*
X11858816Y-15646310D01*
X11925482Y-15693929D02*
X11935006Y-15684405D01*
X11935006Y-15684405D02*
X11954054Y-15674881D01*
X11954054Y-15674881D02*
X12001673Y-15674881D01*
X12001673Y-15674881D02*
X12020720Y-15684405D01*
X12020720Y-15684405D02*
X12030244Y-15693929D01*
X12030244Y-15693929D02*
X12039768Y-15712976D01*
X12039768Y-15712976D02*
X12039768Y-15732024D01*
X12039768Y-15732024D02*
X12030244Y-15760595D01*
X12030244Y-15760595D02*
X11915958Y-15874881D01*
X11915958Y-15874881D02*
X12039768Y-15874881D01*
X12277863Y-15874881D02*
X12277863Y-15674881D01*
X12363578Y-15874881D02*
X12363578Y-15770119D01*
X12363578Y-15770119D02*
X12354054Y-15751072D01*
X12354054Y-15751072D02*
X12335006Y-15741548D01*
X12335006Y-15741548D02*
X12306435Y-15741548D01*
X12306435Y-15741548D02*
X12287387Y-15751072D01*
X12287387Y-15751072D02*
X12277863Y-15760595D01*
X12487387Y-15874881D02*
X12468339Y-15865357D01*
X12468339Y-15865357D02*
X12458816Y-15855833D01*
X12458816Y-15855833D02*
X12449292Y-15836786D01*
X12449292Y-15836786D02*
X12449292Y-15779643D01*
X12449292Y-15779643D02*
X12458816Y-15760595D01*
X12458816Y-15760595D02*
X12468339Y-15751072D01*
X12468339Y-15751072D02*
X12487387Y-15741548D01*
X12487387Y-15741548D02*
X12515959Y-15741548D01*
X12515959Y-15741548D02*
X12535006Y-15751072D01*
X12535006Y-15751072D02*
X12544530Y-15760595D01*
X12544530Y-15760595D02*
X12554054Y-15779643D01*
X12554054Y-15779643D02*
X12554054Y-15836786D01*
X12554054Y-15836786D02*
X12544530Y-15855833D01*
X12544530Y-15855833D02*
X12535006Y-15865357D01*
X12535006Y-15865357D02*
X12515959Y-15874881D01*
X12515959Y-15874881D02*
X12487387Y-15874881D01*
X12668339Y-15874881D02*
X12649292Y-15865357D01*
X12649292Y-15865357D02*
X12639768Y-15846310D01*
X12639768Y-15846310D02*
X12639768Y-15674881D01*
X12820720Y-15865357D02*
X12801673Y-15874881D01*
X12801673Y-15874881D02*
X12763578Y-15874881D01*
X12763578Y-15874881D02*
X12744530Y-15865357D01*
X12744530Y-15865357D02*
X12735006Y-15846310D01*
X12735006Y-15846310D02*
X12735006Y-15770119D01*
X12735006Y-15770119D02*
X12744530Y-15751072D01*
X12744530Y-15751072D02*
X12763578Y-15741548D01*
X12763578Y-15741548D02*
X12801673Y-15741548D01*
X12801673Y-15741548D02*
X12820720Y-15751072D01*
X12820720Y-15751072D02*
X12830244Y-15770119D01*
X12830244Y-15770119D02*
X12830244Y-15789167D01*
X12830244Y-15789167D02*
X12735006Y-15808214D01*
X12906435Y-15865357D02*
X12925482Y-15874881D01*
X12925482Y-15874881D02*
X12963578Y-15874881D01*
X12963578Y-15874881D02*
X12982625Y-15865357D01*
X12982625Y-15865357D02*
X12992149Y-15846310D01*
X12992149Y-15846310D02*
X12992149Y-15836786D01*
X12992149Y-15836786D02*
X12982625Y-15817738D01*
X12982625Y-15817738D02*
X12963578Y-15808214D01*
X12963578Y-15808214D02*
X12935006Y-15808214D01*
X12935006Y-15808214D02*
X12915959Y-15798691D01*
X12915959Y-15798691D02*
X12906435Y-15779643D01*
X12906435Y-15779643D02*
X12906435Y-15770119D01*
X12906435Y-15770119D02*
X12915959Y-15751072D01*
X12915959Y-15751072D02*
X12935006Y-15741548D01*
X12935006Y-15741548D02*
X12963578Y-15741548D01*
X12963578Y-15741548D02*
X12982625Y-15751072D01*
X13058816Y-15951072D02*
X13068340Y-15941548D01*
X13068340Y-15941548D02*
X13087387Y-15912976D01*
X13087387Y-15912976D02*
X13096911Y-15893929D01*
X13096911Y-15893929D02*
X13106435Y-15865357D01*
X13106435Y-15865357D02*
X13115959Y-15817738D01*
X13115959Y-15817738D02*
X13115959Y-15779643D01*
X13115959Y-15779643D02*
X13106435Y-15732024D01*
X13106435Y-15732024D02*
X13096911Y-15703453D01*
X13096911Y-15703453D02*
X13087387Y-15684405D01*
X13087387Y-15684405D02*
X13068340Y-15655833D01*
X13068340Y-15655833D02*
X13058816Y-15646310D01*
X8183753Y-16147397D02*
X8283753Y-16047397D01*
X8183753Y-15947397D01*
X8083753Y-16047397D01*
X8183753Y-16147397D01*
X8535006Y-15957929D02*
X8544530Y-15948405D01*
X8544530Y-15948405D02*
X8563577Y-15938881D01*
X8563577Y-15938881D02*
X8611196Y-15938881D01*
X8611196Y-15938881D02*
X8630244Y-15948405D01*
X8630244Y-15948405D02*
X8639768Y-15957929D01*
X8639768Y-15957929D02*
X8649292Y-15976976D01*
X8649292Y-15976976D02*
X8649292Y-15996024D01*
X8649292Y-15996024D02*
X8639768Y-16024595D01*
X8639768Y-16024595D02*
X8525482Y-16138881D01*
X8525482Y-16138881D02*
X8649292Y-16138881D01*
X8735006Y-16119833D02*
X8744530Y-16129357D01*
X8744530Y-16129357D02*
X8735006Y-16138881D01*
X8735006Y-16138881D02*
X8725482Y-16129357D01*
X8725482Y-16129357D02*
X8735006Y-16119833D01*
X8735006Y-16119833D02*
X8735006Y-16138881D01*
X8915958Y-16005548D02*
X8915958Y-16138881D01*
X8868339Y-15929357D02*
X8820720Y-16072214D01*
X8820720Y-16072214D02*
X8944530Y-16072214D01*
X9058815Y-15938881D02*
X9077863Y-15938881D01*
X9077863Y-15938881D02*
X9096911Y-15948405D01*
X9096911Y-15948405D02*
X9106434Y-15957929D01*
X9106434Y-15957929D02*
X9115958Y-15976976D01*
X9115958Y-15976976D02*
X9125482Y-16015072D01*
X9125482Y-16015072D02*
X9125482Y-16062691D01*
X9125482Y-16062691D02*
X9115958Y-16100786D01*
X9115958Y-16100786D02*
X9106434Y-16119833D01*
X9106434Y-16119833D02*
X9096911Y-16129357D01*
X9096911Y-16129357D02*
X9077863Y-16138881D01*
X9077863Y-16138881D02*
X9058815Y-16138881D01*
X9058815Y-16138881D02*
X9039768Y-16129357D01*
X9039768Y-16129357D02*
X9030244Y-16119833D01*
X9030244Y-16119833D02*
X9020720Y-16100786D01*
X9020720Y-16100786D02*
X9011196Y-16062691D01*
X9011196Y-16062691D02*
X9011196Y-16015072D01*
X9011196Y-16015072D02*
X9020720Y-15976976D01*
X9020720Y-15976976D02*
X9030244Y-15957929D01*
X9030244Y-15957929D02*
X9039768Y-15948405D01*
X9039768Y-15948405D02*
X9058815Y-15938881D01*
X9249292Y-15938881D02*
X9268339Y-15938881D01*
X9268339Y-15938881D02*
X9287387Y-15948405D01*
X9287387Y-15948405D02*
X9296911Y-15957929D01*
X9296911Y-15957929D02*
X9306434Y-15976976D01*
X9306434Y-15976976D02*
X9315958Y-16015072D01*
X9315958Y-16015072D02*
X9315958Y-16062691D01*
X9315958Y-16062691D02*
X9306434Y-16100786D01*
X9306434Y-16100786D02*
X9296911Y-16119833D01*
X9296911Y-16119833D02*
X9287387Y-16129357D01*
X9287387Y-16129357D02*
X9268339Y-16138881D01*
X9268339Y-16138881D02*
X9249292Y-16138881D01*
X9249292Y-16138881D02*
X9230244Y-16129357D01*
X9230244Y-16129357D02*
X9220720Y-16119833D01*
X9220720Y-16119833D02*
X9211196Y-16100786D01*
X9211196Y-16100786D02*
X9201673Y-16062691D01*
X9201673Y-16062691D02*
X9201673Y-16015072D01*
X9201673Y-16015072D02*
X9211196Y-15976976D01*
X9211196Y-15976976D02*
X9220720Y-15957929D01*
X9220720Y-15957929D02*
X9230244Y-15948405D01*
X9230244Y-15948405D02*
X9249292Y-15938881D01*
X9401673Y-16138881D02*
X9401673Y-16005548D01*
X9401673Y-16024595D02*
X9411196Y-16015072D01*
X9411196Y-16015072D02*
X9430244Y-16005548D01*
X9430244Y-16005548D02*
X9458815Y-16005548D01*
X9458815Y-16005548D02*
X9477863Y-16015072D01*
X9477863Y-16015072D02*
X9487387Y-16034119D01*
X9487387Y-16034119D02*
X9487387Y-16138881D01*
X9487387Y-16034119D02*
X9496911Y-16015072D01*
X9496911Y-16015072D02*
X9515958Y-16005548D01*
X9515958Y-16005548D02*
X9544530Y-16005548D01*
X9544530Y-16005548D02*
X9563577Y-16015072D01*
X9563577Y-16015072D02*
X9573101Y-16034119D01*
X9573101Y-16034119D02*
X9573101Y-16138881D01*
X9668339Y-16138881D02*
X9668339Y-16005548D01*
X9668339Y-16024595D02*
X9677863Y-16015072D01*
X9677863Y-16015072D02*
X9696911Y-16005548D01*
X9696911Y-16005548D02*
X9725482Y-16005548D01*
X9725482Y-16005548D02*
X9744530Y-16015072D01*
X9744530Y-16015072D02*
X9754054Y-16034119D01*
X9754054Y-16034119D02*
X9754054Y-16138881D01*
X9754054Y-16034119D02*
X9763577Y-16015072D01*
X9763577Y-16015072D02*
X9782625Y-16005548D01*
X9782625Y-16005548D02*
X9811196Y-16005548D01*
X9811196Y-16005548D02*
X9830244Y-16015072D01*
X9830244Y-16015072D02*
X9839768Y-16034119D01*
X9839768Y-16034119D02*
X9839768Y-16138881D01*
X10230244Y-15929357D02*
X10058816Y-16186500D01*
X10487387Y-15938881D02*
X10506435Y-15938881D01*
X10506435Y-15938881D02*
X10525482Y-15948405D01*
X10525482Y-15948405D02*
X10535006Y-15957929D01*
X10535006Y-15957929D02*
X10544530Y-15976976D01*
X10544530Y-15976976D02*
X10554054Y-16015072D01*
X10554054Y-16015072D02*
X10554054Y-16062691D01*
X10554054Y-16062691D02*
X10544530Y-16100786D01*
X10544530Y-16100786D02*
X10535006Y-16119833D01*
X10535006Y-16119833D02*
X10525482Y-16129357D01*
X10525482Y-16129357D02*
X10506435Y-16138881D01*
X10506435Y-16138881D02*
X10487387Y-16138881D01*
X10487387Y-16138881D02*
X10468339Y-16129357D01*
X10468339Y-16129357D02*
X10458816Y-16119833D01*
X10458816Y-16119833D02*
X10449292Y-16100786D01*
X10449292Y-16100786D02*
X10439768Y-16062691D01*
X10439768Y-16062691D02*
X10439768Y-16015072D01*
X10439768Y-16015072D02*
X10449292Y-15976976D01*
X10449292Y-15976976D02*
X10458816Y-15957929D01*
X10458816Y-15957929D02*
X10468339Y-15948405D01*
X10468339Y-15948405D02*
X10487387Y-15938881D01*
X10639768Y-16119833D02*
X10649292Y-16129357D01*
X10649292Y-16129357D02*
X10639768Y-16138881D01*
X10639768Y-16138881D02*
X10630244Y-16129357D01*
X10630244Y-16129357D02*
X10639768Y-16119833D01*
X10639768Y-16119833D02*
X10639768Y-16138881D01*
X10773101Y-15938881D02*
X10792149Y-15938881D01*
X10792149Y-15938881D02*
X10811197Y-15948405D01*
X10811197Y-15948405D02*
X10820720Y-15957929D01*
X10820720Y-15957929D02*
X10830244Y-15976976D01*
X10830244Y-15976976D02*
X10839768Y-16015072D01*
X10839768Y-16015072D02*
X10839768Y-16062691D01*
X10839768Y-16062691D02*
X10830244Y-16100786D01*
X10830244Y-16100786D02*
X10820720Y-16119833D01*
X10820720Y-16119833D02*
X10811197Y-16129357D01*
X10811197Y-16129357D02*
X10792149Y-16138881D01*
X10792149Y-16138881D02*
X10773101Y-16138881D01*
X10773101Y-16138881D02*
X10754054Y-16129357D01*
X10754054Y-16129357D02*
X10744530Y-16119833D01*
X10744530Y-16119833D02*
X10735006Y-16100786D01*
X10735006Y-16100786D02*
X10725482Y-16062691D01*
X10725482Y-16062691D02*
X10725482Y-16015072D01*
X10725482Y-16015072D02*
X10735006Y-15976976D01*
X10735006Y-15976976D02*
X10744530Y-15957929D01*
X10744530Y-15957929D02*
X10754054Y-15948405D01*
X10754054Y-15948405D02*
X10773101Y-15938881D01*
X10935006Y-16138881D02*
X10973101Y-16138881D01*
X10973101Y-16138881D02*
X10992149Y-16129357D01*
X10992149Y-16129357D02*
X11001673Y-16119833D01*
X11001673Y-16119833D02*
X11020720Y-16091262D01*
X11020720Y-16091262D02*
X11030244Y-16053167D01*
X11030244Y-16053167D02*
X11030244Y-15976976D01*
X11030244Y-15976976D02*
X11020720Y-15957929D01*
X11020720Y-15957929D02*
X11011197Y-15948405D01*
X11011197Y-15948405D02*
X10992149Y-15938881D01*
X10992149Y-15938881D02*
X10954054Y-15938881D01*
X10954054Y-15938881D02*
X10935006Y-15948405D01*
X10935006Y-15948405D02*
X10925482Y-15957929D01*
X10925482Y-15957929D02*
X10915958Y-15976976D01*
X10915958Y-15976976D02*
X10915958Y-16024595D01*
X10915958Y-16024595D02*
X10925482Y-16043643D01*
X10925482Y-16043643D02*
X10935006Y-16053167D01*
X10935006Y-16053167D02*
X10954054Y-16062691D01*
X10954054Y-16062691D02*
X10992149Y-16062691D01*
X10992149Y-16062691D02*
X11011197Y-16053167D01*
X11011197Y-16053167D02*
X11020720Y-16043643D01*
X11020720Y-16043643D02*
X11030244Y-16024595D01*
X11201673Y-16005548D02*
X11201673Y-16138881D01*
X11154054Y-15929357D02*
X11106435Y-16072214D01*
X11106435Y-16072214D02*
X11230244Y-16072214D01*
X11401673Y-15938881D02*
X11306435Y-15938881D01*
X11306435Y-15938881D02*
X11296911Y-16034119D01*
X11296911Y-16034119D02*
X11306435Y-16024595D01*
X11306435Y-16024595D02*
X11325482Y-16015072D01*
X11325482Y-16015072D02*
X11373101Y-16015072D01*
X11373101Y-16015072D02*
X11392149Y-16024595D01*
X11392149Y-16024595D02*
X11401673Y-16034119D01*
X11401673Y-16034119D02*
X11411196Y-16053167D01*
X11411196Y-16053167D02*
X11411196Y-16100786D01*
X11411196Y-16100786D02*
X11401673Y-16119833D01*
X11401673Y-16119833D02*
X11392149Y-16129357D01*
X11392149Y-16129357D02*
X11373101Y-16138881D01*
X11373101Y-16138881D02*
X11325482Y-16138881D01*
X11325482Y-16138881D02*
X11306435Y-16129357D01*
X11306435Y-16129357D02*
X11296911Y-16119833D01*
X11487387Y-15938881D02*
X11487387Y-15976976D01*
X11563577Y-15938881D02*
X11563577Y-15976976D01*
X11858816Y-16215072D02*
X11849292Y-16205548D01*
X11849292Y-16205548D02*
X11830244Y-16176976D01*
X11830244Y-16176976D02*
X11820720Y-16157929D01*
X11820720Y-16157929D02*
X11811197Y-16129357D01*
X11811197Y-16129357D02*
X11801673Y-16081738D01*
X11801673Y-16081738D02*
X11801673Y-16043643D01*
X11801673Y-16043643D02*
X11811197Y-15996024D01*
X11811197Y-15996024D02*
X11820720Y-15967453D01*
X11820720Y-15967453D02*
X11830244Y-15948405D01*
X11830244Y-15948405D02*
X11849292Y-15919833D01*
X11849292Y-15919833D02*
X11858816Y-15910310D01*
X11925482Y-15957929D02*
X11935006Y-15948405D01*
X11935006Y-15948405D02*
X11954054Y-15938881D01*
X11954054Y-15938881D02*
X12001673Y-15938881D01*
X12001673Y-15938881D02*
X12020720Y-15948405D01*
X12020720Y-15948405D02*
X12030244Y-15957929D01*
X12030244Y-15957929D02*
X12039768Y-15976976D01*
X12039768Y-15976976D02*
X12039768Y-15996024D01*
X12039768Y-15996024D02*
X12030244Y-16024595D01*
X12030244Y-16024595D02*
X11915958Y-16138881D01*
X11915958Y-16138881D02*
X12039768Y-16138881D01*
X12277863Y-16138881D02*
X12277863Y-15938881D01*
X12363578Y-16138881D02*
X12363578Y-16034119D01*
X12363578Y-16034119D02*
X12354054Y-16015072D01*
X12354054Y-16015072D02*
X12335006Y-16005548D01*
X12335006Y-16005548D02*
X12306435Y-16005548D01*
X12306435Y-16005548D02*
X12287387Y-16015072D01*
X12287387Y-16015072D02*
X12277863Y-16024595D01*
X12487387Y-16138881D02*
X12468339Y-16129357D01*
X12468339Y-16129357D02*
X12458816Y-16119833D01*
X12458816Y-16119833D02*
X12449292Y-16100786D01*
X12449292Y-16100786D02*
X12449292Y-16043643D01*
X12449292Y-16043643D02*
X12458816Y-16024595D01*
X12458816Y-16024595D02*
X12468339Y-16015072D01*
X12468339Y-16015072D02*
X12487387Y-16005548D01*
X12487387Y-16005548D02*
X12515959Y-16005548D01*
X12515959Y-16005548D02*
X12535006Y-16015072D01*
X12535006Y-16015072D02*
X12544530Y-16024595D01*
X12544530Y-16024595D02*
X12554054Y-16043643D01*
X12554054Y-16043643D02*
X12554054Y-16100786D01*
X12554054Y-16100786D02*
X12544530Y-16119833D01*
X12544530Y-16119833D02*
X12535006Y-16129357D01*
X12535006Y-16129357D02*
X12515959Y-16138881D01*
X12515959Y-16138881D02*
X12487387Y-16138881D01*
X12668339Y-16138881D02*
X12649292Y-16129357D01*
X12649292Y-16129357D02*
X12639768Y-16110310D01*
X12639768Y-16110310D02*
X12639768Y-15938881D01*
X12820720Y-16129357D02*
X12801673Y-16138881D01*
X12801673Y-16138881D02*
X12763578Y-16138881D01*
X12763578Y-16138881D02*
X12744530Y-16129357D01*
X12744530Y-16129357D02*
X12735006Y-16110310D01*
X12735006Y-16110310D02*
X12735006Y-16034119D01*
X12735006Y-16034119D02*
X12744530Y-16015072D01*
X12744530Y-16015072D02*
X12763578Y-16005548D01*
X12763578Y-16005548D02*
X12801673Y-16005548D01*
X12801673Y-16005548D02*
X12820720Y-16015072D01*
X12820720Y-16015072D02*
X12830244Y-16034119D01*
X12830244Y-16034119D02*
X12830244Y-16053167D01*
X12830244Y-16053167D02*
X12735006Y-16072214D01*
X12906435Y-16129357D02*
X12925482Y-16138881D01*
X12925482Y-16138881D02*
X12963578Y-16138881D01*
X12963578Y-16138881D02*
X12982625Y-16129357D01*
X12982625Y-16129357D02*
X12992149Y-16110310D01*
X12992149Y-16110310D02*
X12992149Y-16100786D01*
X12992149Y-16100786D02*
X12982625Y-16081738D01*
X12982625Y-16081738D02*
X12963578Y-16072214D01*
X12963578Y-16072214D02*
X12935006Y-16072214D01*
X12935006Y-16072214D02*
X12915959Y-16062691D01*
X12915959Y-16062691D02*
X12906435Y-16043643D01*
X12906435Y-16043643D02*
X12906435Y-16034119D01*
X12906435Y-16034119D02*
X12915959Y-16015072D01*
X12915959Y-16015072D02*
X12935006Y-16005548D01*
X12935006Y-16005548D02*
X12963578Y-16005548D01*
X12963578Y-16005548D02*
X12982625Y-16015072D01*
X13058816Y-16215072D02*
X13068340Y-16205548D01*
X13068340Y-16205548D02*
X13087387Y-16176976D01*
X13087387Y-16176976D02*
X13096911Y-16157929D01*
X13096911Y-16157929D02*
X13106435Y-16129357D01*
X13106435Y-16129357D02*
X13115959Y-16081738D01*
X13115959Y-16081738D02*
X13115959Y-16043643D01*
X13115959Y-16043643D02*
X13106435Y-15996024D01*
X13106435Y-15996024D02*
X13096911Y-15967453D01*
X13096911Y-15967453D02*
X13087387Y-15948405D01*
X13087387Y-15948405D02*
X13068340Y-15919833D01*
X13068340Y-15919833D02*
X13058816Y-15910310D01*
X8083753Y-16267397D02*
X8283753Y-16467397D01*
X8283753Y-16267397D02*
X8083753Y-16467397D01*
X8283753Y-16367397D02*
G75*
G02*
X8083753Y-16367397I-100000J0D01*
G01*
X8083753Y-16367397D02*
G75*
G02*
X8283753Y-16367397I100000J0D01*
G01*
X8630244Y-16325548D02*
X8630244Y-16458881D01*
X8582625Y-16249357D02*
X8535006Y-16392214D01*
X8535006Y-16392214D02*
X8658815Y-16392214D01*
X8735006Y-16439833D02*
X8744530Y-16449357D01*
X8744530Y-16449357D02*
X8735006Y-16458881D01*
X8735006Y-16458881D02*
X8725482Y-16449357D01*
X8725482Y-16449357D02*
X8735006Y-16439833D01*
X8735006Y-16439833D02*
X8735006Y-16458881D01*
X8811196Y-16258881D02*
X8944530Y-16258881D01*
X8944530Y-16258881D02*
X8858815Y-16458881D01*
X9058815Y-16258881D02*
X9077863Y-16258881D01*
X9077863Y-16258881D02*
X9096911Y-16268405D01*
X9096911Y-16268405D02*
X9106434Y-16277929D01*
X9106434Y-16277929D02*
X9115958Y-16296976D01*
X9115958Y-16296976D02*
X9125482Y-16335072D01*
X9125482Y-16335072D02*
X9125482Y-16382691D01*
X9125482Y-16382691D02*
X9115958Y-16420786D01*
X9115958Y-16420786D02*
X9106434Y-16439833D01*
X9106434Y-16439833D02*
X9096911Y-16449357D01*
X9096911Y-16449357D02*
X9077863Y-16458881D01*
X9077863Y-16458881D02*
X9058815Y-16458881D01*
X9058815Y-16458881D02*
X9039768Y-16449357D01*
X9039768Y-16449357D02*
X9030244Y-16439833D01*
X9030244Y-16439833D02*
X9020720Y-16420786D01*
X9020720Y-16420786D02*
X9011196Y-16382691D01*
X9011196Y-16382691D02*
X9011196Y-16335072D01*
X9011196Y-16335072D02*
X9020720Y-16296976D01*
X9020720Y-16296976D02*
X9030244Y-16277929D01*
X9030244Y-16277929D02*
X9039768Y-16268405D01*
X9039768Y-16268405D02*
X9058815Y-16258881D01*
X9249292Y-16258881D02*
X9268339Y-16258881D01*
X9268339Y-16258881D02*
X9287387Y-16268405D01*
X9287387Y-16268405D02*
X9296911Y-16277929D01*
X9296911Y-16277929D02*
X9306434Y-16296976D01*
X9306434Y-16296976D02*
X9315958Y-16335072D01*
X9315958Y-16335072D02*
X9315958Y-16382691D01*
X9315958Y-16382691D02*
X9306434Y-16420786D01*
X9306434Y-16420786D02*
X9296911Y-16439833D01*
X9296911Y-16439833D02*
X9287387Y-16449357D01*
X9287387Y-16449357D02*
X9268339Y-16458881D01*
X9268339Y-16458881D02*
X9249292Y-16458881D01*
X9249292Y-16458881D02*
X9230244Y-16449357D01*
X9230244Y-16449357D02*
X9220720Y-16439833D01*
X9220720Y-16439833D02*
X9211196Y-16420786D01*
X9211196Y-16420786D02*
X9201673Y-16382691D01*
X9201673Y-16382691D02*
X9201673Y-16335072D01*
X9201673Y-16335072D02*
X9211196Y-16296976D01*
X9211196Y-16296976D02*
X9220720Y-16277929D01*
X9220720Y-16277929D02*
X9230244Y-16268405D01*
X9230244Y-16268405D02*
X9249292Y-16258881D01*
X9401673Y-16458881D02*
X9401673Y-16325548D01*
X9401673Y-16344595D02*
X9411196Y-16335072D01*
X9411196Y-16335072D02*
X9430244Y-16325548D01*
X9430244Y-16325548D02*
X9458815Y-16325548D01*
X9458815Y-16325548D02*
X9477863Y-16335072D01*
X9477863Y-16335072D02*
X9487387Y-16354119D01*
X9487387Y-16354119D02*
X9487387Y-16458881D01*
X9487387Y-16354119D02*
X9496911Y-16335072D01*
X9496911Y-16335072D02*
X9515958Y-16325548D01*
X9515958Y-16325548D02*
X9544530Y-16325548D01*
X9544530Y-16325548D02*
X9563577Y-16335072D01*
X9563577Y-16335072D02*
X9573101Y-16354119D01*
X9573101Y-16354119D02*
X9573101Y-16458881D01*
X9668339Y-16458881D02*
X9668339Y-16325548D01*
X9668339Y-16344595D02*
X9677863Y-16335072D01*
X9677863Y-16335072D02*
X9696911Y-16325548D01*
X9696911Y-16325548D02*
X9725482Y-16325548D01*
X9725482Y-16325548D02*
X9744530Y-16335072D01*
X9744530Y-16335072D02*
X9754054Y-16354119D01*
X9754054Y-16354119D02*
X9754054Y-16458881D01*
X9754054Y-16354119D02*
X9763577Y-16335072D01*
X9763577Y-16335072D02*
X9782625Y-16325548D01*
X9782625Y-16325548D02*
X9811196Y-16325548D01*
X9811196Y-16325548D02*
X9830244Y-16335072D01*
X9830244Y-16335072D02*
X9839768Y-16354119D01*
X9839768Y-16354119D02*
X9839768Y-16458881D01*
X10230244Y-16249357D02*
X10058816Y-16506500D01*
X10487387Y-16258881D02*
X10506435Y-16258881D01*
X10506435Y-16258881D02*
X10525482Y-16268405D01*
X10525482Y-16268405D02*
X10535006Y-16277929D01*
X10535006Y-16277929D02*
X10544530Y-16296976D01*
X10544530Y-16296976D02*
X10554054Y-16335072D01*
X10554054Y-16335072D02*
X10554054Y-16382691D01*
X10554054Y-16382691D02*
X10544530Y-16420786D01*
X10544530Y-16420786D02*
X10535006Y-16439833D01*
X10535006Y-16439833D02*
X10525482Y-16449357D01*
X10525482Y-16449357D02*
X10506435Y-16458881D01*
X10506435Y-16458881D02*
X10487387Y-16458881D01*
X10487387Y-16458881D02*
X10468339Y-16449357D01*
X10468339Y-16449357D02*
X10458816Y-16439833D01*
X10458816Y-16439833D02*
X10449292Y-16420786D01*
X10449292Y-16420786D02*
X10439768Y-16382691D01*
X10439768Y-16382691D02*
X10439768Y-16335072D01*
X10439768Y-16335072D02*
X10449292Y-16296976D01*
X10449292Y-16296976D02*
X10458816Y-16277929D01*
X10458816Y-16277929D02*
X10468339Y-16268405D01*
X10468339Y-16268405D02*
X10487387Y-16258881D01*
X10639768Y-16439833D02*
X10649292Y-16449357D01*
X10649292Y-16449357D02*
X10639768Y-16458881D01*
X10639768Y-16458881D02*
X10630244Y-16449357D01*
X10630244Y-16449357D02*
X10639768Y-16439833D01*
X10639768Y-16439833D02*
X10639768Y-16458881D01*
X10839768Y-16458881D02*
X10725482Y-16458881D01*
X10782625Y-16458881D02*
X10782625Y-16258881D01*
X10782625Y-16258881D02*
X10763577Y-16287453D01*
X10763577Y-16287453D02*
X10744530Y-16306500D01*
X10744530Y-16306500D02*
X10725482Y-16316024D01*
X10954054Y-16344595D02*
X10935006Y-16335072D01*
X10935006Y-16335072D02*
X10925482Y-16325548D01*
X10925482Y-16325548D02*
X10915958Y-16306500D01*
X10915958Y-16306500D02*
X10915958Y-16296976D01*
X10915958Y-16296976D02*
X10925482Y-16277929D01*
X10925482Y-16277929D02*
X10935006Y-16268405D01*
X10935006Y-16268405D02*
X10954054Y-16258881D01*
X10954054Y-16258881D02*
X10992149Y-16258881D01*
X10992149Y-16258881D02*
X11011197Y-16268405D01*
X11011197Y-16268405D02*
X11020720Y-16277929D01*
X11020720Y-16277929D02*
X11030244Y-16296976D01*
X11030244Y-16296976D02*
X11030244Y-16306500D01*
X11030244Y-16306500D02*
X11020720Y-16325548D01*
X11020720Y-16325548D02*
X11011197Y-16335072D01*
X11011197Y-16335072D02*
X10992149Y-16344595D01*
X10992149Y-16344595D02*
X10954054Y-16344595D01*
X10954054Y-16344595D02*
X10935006Y-16354119D01*
X10935006Y-16354119D02*
X10925482Y-16363643D01*
X10925482Y-16363643D02*
X10915958Y-16382691D01*
X10915958Y-16382691D02*
X10915958Y-16420786D01*
X10915958Y-16420786D02*
X10925482Y-16439833D01*
X10925482Y-16439833D02*
X10935006Y-16449357D01*
X10935006Y-16449357D02*
X10954054Y-16458881D01*
X10954054Y-16458881D02*
X10992149Y-16458881D01*
X10992149Y-16458881D02*
X11011197Y-16449357D01*
X11011197Y-16449357D02*
X11020720Y-16439833D01*
X11020720Y-16439833D02*
X11030244Y-16420786D01*
X11030244Y-16420786D02*
X11030244Y-16382691D01*
X11030244Y-16382691D02*
X11020720Y-16363643D01*
X11020720Y-16363643D02*
X11011197Y-16354119D01*
X11011197Y-16354119D02*
X10992149Y-16344595D01*
X11211196Y-16258881D02*
X11115958Y-16258881D01*
X11115958Y-16258881D02*
X11106435Y-16354119D01*
X11106435Y-16354119D02*
X11115958Y-16344595D01*
X11115958Y-16344595D02*
X11135006Y-16335072D01*
X11135006Y-16335072D02*
X11182625Y-16335072D01*
X11182625Y-16335072D02*
X11201673Y-16344595D01*
X11201673Y-16344595D02*
X11211196Y-16354119D01*
X11211196Y-16354119D02*
X11220720Y-16373167D01*
X11220720Y-16373167D02*
X11220720Y-16420786D01*
X11220720Y-16420786D02*
X11211196Y-16439833D01*
X11211196Y-16439833D02*
X11201673Y-16449357D01*
X11201673Y-16449357D02*
X11182625Y-16458881D01*
X11182625Y-16458881D02*
X11135006Y-16458881D01*
X11135006Y-16458881D02*
X11115958Y-16449357D01*
X11115958Y-16449357D02*
X11106435Y-16439833D01*
X11344530Y-16258881D02*
X11363577Y-16258881D01*
X11363577Y-16258881D02*
X11382625Y-16268405D01*
X11382625Y-16268405D02*
X11392149Y-16277929D01*
X11392149Y-16277929D02*
X11401673Y-16296976D01*
X11401673Y-16296976D02*
X11411196Y-16335072D01*
X11411196Y-16335072D02*
X11411196Y-16382691D01*
X11411196Y-16382691D02*
X11401673Y-16420786D01*
X11401673Y-16420786D02*
X11392149Y-16439833D01*
X11392149Y-16439833D02*
X11382625Y-16449357D01*
X11382625Y-16449357D02*
X11363577Y-16458881D01*
X11363577Y-16458881D02*
X11344530Y-16458881D01*
X11344530Y-16458881D02*
X11325482Y-16449357D01*
X11325482Y-16449357D02*
X11315958Y-16439833D01*
X11315958Y-16439833D02*
X11306435Y-16420786D01*
X11306435Y-16420786D02*
X11296911Y-16382691D01*
X11296911Y-16382691D02*
X11296911Y-16335072D01*
X11296911Y-16335072D02*
X11306435Y-16296976D01*
X11306435Y-16296976D02*
X11315958Y-16277929D01*
X11315958Y-16277929D02*
X11325482Y-16268405D01*
X11325482Y-16268405D02*
X11344530Y-16258881D01*
X11487387Y-16258881D02*
X11487387Y-16296976D01*
X11563577Y-16258881D02*
X11563577Y-16296976D01*
X11858816Y-16535072D02*
X11849292Y-16525548D01*
X11849292Y-16525548D02*
X11830244Y-16496976D01*
X11830244Y-16496976D02*
X11820720Y-16477929D01*
X11820720Y-16477929D02*
X11811197Y-16449357D01*
X11811197Y-16449357D02*
X11801673Y-16401738D01*
X11801673Y-16401738D02*
X11801673Y-16363643D01*
X11801673Y-16363643D02*
X11811197Y-16316024D01*
X11811197Y-16316024D02*
X11820720Y-16287453D01*
X11820720Y-16287453D02*
X11830244Y-16268405D01*
X11830244Y-16268405D02*
X11849292Y-16239833D01*
X11849292Y-16239833D02*
X11858816Y-16230310D01*
X12030244Y-16258881D02*
X11935006Y-16258881D01*
X11935006Y-16258881D02*
X11925482Y-16354119D01*
X11925482Y-16354119D02*
X11935006Y-16344595D01*
X11935006Y-16344595D02*
X11954054Y-16335072D01*
X11954054Y-16335072D02*
X12001673Y-16335072D01*
X12001673Y-16335072D02*
X12020720Y-16344595D01*
X12020720Y-16344595D02*
X12030244Y-16354119D01*
X12030244Y-16354119D02*
X12039768Y-16373167D01*
X12039768Y-16373167D02*
X12039768Y-16420786D01*
X12039768Y-16420786D02*
X12030244Y-16439833D01*
X12030244Y-16439833D02*
X12020720Y-16449357D01*
X12020720Y-16449357D02*
X12001673Y-16458881D01*
X12001673Y-16458881D02*
X11954054Y-16458881D01*
X11954054Y-16458881D02*
X11935006Y-16449357D01*
X11935006Y-16449357D02*
X11925482Y-16439833D01*
X12277863Y-16458881D02*
X12277863Y-16258881D01*
X12363578Y-16458881D02*
X12363578Y-16354119D01*
X12363578Y-16354119D02*
X12354054Y-16335072D01*
X12354054Y-16335072D02*
X12335006Y-16325548D01*
X12335006Y-16325548D02*
X12306435Y-16325548D01*
X12306435Y-16325548D02*
X12287387Y-16335072D01*
X12287387Y-16335072D02*
X12277863Y-16344595D01*
X12487387Y-16458881D02*
X12468339Y-16449357D01*
X12468339Y-16449357D02*
X12458816Y-16439833D01*
X12458816Y-16439833D02*
X12449292Y-16420786D01*
X12449292Y-16420786D02*
X12449292Y-16363643D01*
X12449292Y-16363643D02*
X12458816Y-16344595D01*
X12458816Y-16344595D02*
X12468339Y-16335072D01*
X12468339Y-16335072D02*
X12487387Y-16325548D01*
X12487387Y-16325548D02*
X12515959Y-16325548D01*
X12515959Y-16325548D02*
X12535006Y-16335072D01*
X12535006Y-16335072D02*
X12544530Y-16344595D01*
X12544530Y-16344595D02*
X12554054Y-16363643D01*
X12554054Y-16363643D02*
X12554054Y-16420786D01*
X12554054Y-16420786D02*
X12544530Y-16439833D01*
X12544530Y-16439833D02*
X12535006Y-16449357D01*
X12535006Y-16449357D02*
X12515959Y-16458881D01*
X12515959Y-16458881D02*
X12487387Y-16458881D01*
X12668339Y-16458881D02*
X12649292Y-16449357D01*
X12649292Y-16449357D02*
X12639768Y-16430310D01*
X12639768Y-16430310D02*
X12639768Y-16258881D01*
X12820720Y-16449357D02*
X12801673Y-16458881D01*
X12801673Y-16458881D02*
X12763578Y-16458881D01*
X12763578Y-16458881D02*
X12744530Y-16449357D01*
X12744530Y-16449357D02*
X12735006Y-16430310D01*
X12735006Y-16430310D02*
X12735006Y-16354119D01*
X12735006Y-16354119D02*
X12744530Y-16335072D01*
X12744530Y-16335072D02*
X12763578Y-16325548D01*
X12763578Y-16325548D02*
X12801673Y-16325548D01*
X12801673Y-16325548D02*
X12820720Y-16335072D01*
X12820720Y-16335072D02*
X12830244Y-16354119D01*
X12830244Y-16354119D02*
X12830244Y-16373167D01*
X12830244Y-16373167D02*
X12735006Y-16392214D01*
X12906435Y-16449357D02*
X12925482Y-16458881D01*
X12925482Y-16458881D02*
X12963578Y-16458881D01*
X12963578Y-16458881D02*
X12982625Y-16449357D01*
X12982625Y-16449357D02*
X12992149Y-16430310D01*
X12992149Y-16430310D02*
X12992149Y-16420786D01*
X12992149Y-16420786D02*
X12982625Y-16401738D01*
X12982625Y-16401738D02*
X12963578Y-16392214D01*
X12963578Y-16392214D02*
X12935006Y-16392214D01*
X12935006Y-16392214D02*
X12915959Y-16382691D01*
X12915959Y-16382691D02*
X12906435Y-16363643D01*
X12906435Y-16363643D02*
X12906435Y-16354119D01*
X12906435Y-16354119D02*
X12915959Y-16335072D01*
X12915959Y-16335072D02*
X12935006Y-16325548D01*
X12935006Y-16325548D02*
X12963578Y-16325548D01*
X12963578Y-16325548D02*
X12982625Y-16335072D01*
X13058816Y-16535072D02*
X13068340Y-16525548D01*
X13068340Y-16525548D02*
X13087387Y-16496976D01*
X13087387Y-16496976D02*
X13096911Y-16477929D01*
X13096911Y-16477929D02*
X13106435Y-16449357D01*
X13106435Y-16449357D02*
X13115959Y-16401738D01*
X13115959Y-16401738D02*
X13115959Y-16363643D01*
X13115959Y-16363643D02*
X13106435Y-16316024D01*
X13106435Y-16316024D02*
X13096911Y-16287453D01*
X13096911Y-16287453D02*
X13087387Y-16268405D01*
X13087387Y-16268405D02*
X13068340Y-16239833D01*
X13068340Y-16239833D02*
X13058816Y-16230310D01*
M02*
